<svg width="515" height="304" viewBox="0 0 515 304" fill="none" xmlns="http://www.w3.org/2000/svg">
<path fill-rule="evenodd" clip-rule="evenodd" d="M373.553 172.521H383.628V162.446H373.553V172.521Z" fill="#CB2980"/>
<path fill-rule="evenodd" clip-rule="evenodd" d="M353.403 192.671H363.478V182.596H353.403V192.671Z" fill="#C8FF16"/>
<path fill-rule="evenodd" clip-rule="evenodd" d="M323.178 212.821H333.253V202.746H323.178V212.821Z" fill="#CB2980"/>
<path fill-rule="evenodd" clip-rule="evenodd" d="M333.253 212.821H343.328V202.746H333.253V212.821Z" fill="#CB2980"/>
<path fill-rule="evenodd" clip-rule="evenodd" d="M343.328 212.821H353.403V202.746H343.328V212.821Z" fill="#C8FF16"/>
<path fill-rule="evenodd" clip-rule="evenodd" d="M363.478 192.671H373.553V182.596H363.478V192.671Z" fill="#CB2980"/>
<path fill-rule="evenodd" clip-rule="evenodd" d="M373.553 192.671H383.628V182.596H373.553V192.671Z" fill="#CB2980"/>
<path fill-rule="evenodd" clip-rule="evenodd" d="M323.178 172.521H333.253V162.446H323.178V172.521Z" fill="#CB2980"/>
<path fill-rule="evenodd" clip-rule="evenodd" d="M313.103 162.446H323.178V152.371H313.103V162.446Z" fill="#CB2980"/>
<path fill-rule="evenodd" clip-rule="evenodd" d="M504.528 192.671H514.603V182.596H504.528V192.671Z" fill="#CB2980"/>
<path fill-rule="evenodd" clip-rule="evenodd" d="M484.378 253.12H494.453V243.046H484.378V253.12Z" fill="#CB2980"/>
<path fill-rule="evenodd" clip-rule="evenodd" d="M423.928 303.495H434.003V293.421H423.928V303.495Z" fill="#CB2980"/>
<path fill-rule="evenodd" clip-rule="evenodd" d="M413.853 293.421H423.928V283.346H413.853V293.421Z" fill="#CB2980"/>
<path fill-rule="evenodd" clip-rule="evenodd" d="M353.403 283.346H363.478V273.271H353.403V283.346Z" fill="#CB2980"/>
<path fill-rule="evenodd" clip-rule="evenodd" d="M343.328 283.346H353.403V273.271H343.328V283.346Z" fill="#CB2980"/>
<path fill-rule="evenodd" clip-rule="evenodd" d="M272.803 232.971H282.878V222.896H272.803V232.971Z" fill="#CB2980"/>
<path fill-rule="evenodd" clip-rule="evenodd" d="M403.778 162.446H413.853V152.371H403.778V162.446Z" fill="#CB2980"/>
<path fill-rule="evenodd" clip-rule="evenodd" d="M393.703 162.446H403.778V152.371H393.703V162.446Z" fill="#CB2980"/>
<path fill-rule="evenodd" clip-rule="evenodd" d="M403.778 172.521H413.853V162.446H403.778V172.521Z" fill="#CB2980"/>
<path fill-rule="evenodd" clip-rule="evenodd" d="M282.878 253.12H292.953V243.046H282.878V253.12Z" fill="#2B0A3D"/>
<path fill-rule="evenodd" clip-rule="evenodd" d="M292.953 253.12H303.028V243.046H292.953V253.12Z" fill="#2B0A3D"/>
<path fill-rule="evenodd" clip-rule="evenodd" d="M303.028 293.421H313.103V283.346H303.028V293.421Z" fill="#2B0A3D"/>
<path fill-rule="evenodd" clip-rule="evenodd" d="M303.028 283.346H313.103V273.271H303.028V283.346Z" fill="#2B0A3D"/>
<path fill-rule="evenodd" clip-rule="evenodd" d="M303.028 253.12H313.103V243.046H303.028V253.12Z" fill="#2B0A3D"/>
<path fill-rule="evenodd" clip-rule="evenodd" d="M303.028 243.046H313.103V232.971H303.028V243.046Z" fill="#CB2980"/>
<path fill-rule="evenodd" clip-rule="evenodd" d="M303.028 232.971H313.103V222.896H303.028V232.971Z" fill="#860864"/>
<path fill-rule="evenodd" clip-rule="evenodd" d="M313.103 283.346H323.178V273.271H313.103V283.346Z" fill="#2B0A3D"/>
<path fill-rule="evenodd" clip-rule="evenodd" d="M313.103 273.271H323.178V263.196H313.103V273.271Z" fill="#2B0A3D"/>
<path fill-rule="evenodd" clip-rule="evenodd" d="M313.103 263.196H323.178V253.121H313.103V263.196Z" fill="#860864"/>
<path fill-rule="evenodd" clip-rule="evenodd" d="M313.103 253.12H323.178V243.046H313.103V253.12Z" fill="#860864"/>
<path fill-rule="evenodd" clip-rule="evenodd" d="M313.103 243.046H323.178V232.971H313.103V243.046Z" fill="#860864"/>
<path fill-rule="evenodd" clip-rule="evenodd" d="M313.103 232.971H323.178V222.896H313.103V232.971Z" fill="#C8FF16"/>
<path fill-rule="evenodd" clip-rule="evenodd" d="M323.178 273.271H333.253V263.196H323.178V273.271Z" fill="#860864"/>
<path fill-rule="evenodd" clip-rule="evenodd" d="M323.178 263.196H333.253V253.121H323.178V263.196Z" fill="#860864"/>
<path fill-rule="evenodd" clip-rule="evenodd" d="M323.178 253.12H333.253V243.046H323.178V253.12Z" fill="#CB2980"/>
<path fill-rule="evenodd" clip-rule="evenodd" d="M323.178 243.046H333.253V232.971H323.178V243.046Z" fill="#CB2980"/>
<path fill-rule="evenodd" clip-rule="evenodd" d="M323.178 232.971H333.253V222.896H323.178V232.971Z" fill="#860864"/>
<path fill-rule="evenodd" clip-rule="evenodd" d="M333.253 263.196H343.328V253.121H333.253V263.196Z" fill="#860864"/>
<path fill-rule="evenodd" clip-rule="evenodd" d="M333.253 253.12H343.328V243.046H333.253V253.12Z" fill="#860864"/>
<path fill-rule="evenodd" clip-rule="evenodd" d="M333.253 243.046H343.328V232.971H333.253V243.046Z" fill="#2B0A3D"/>
<path fill-rule="evenodd" clip-rule="evenodd" d="M333.253 232.971H343.328V222.896H333.253V232.971Z" fill="#15636B"/>
<path fill-rule="evenodd" clip-rule="evenodd" d="M343.328 243.046H353.403V232.971H343.328V243.046Z" fill="#15636B"/>
<path fill-rule="evenodd" clip-rule="evenodd" d="M343.328 232.971H353.403V222.896H343.328V232.971Z" fill="#15636B"/>
<path fill-rule="evenodd" clip-rule="evenodd" d="M363.478 253.12H373.553V243.046H363.478V253.12Z" fill="#860864"/>
<path fill-rule="evenodd" clip-rule="evenodd" d="M363.478 232.971H373.553V222.896H363.478V232.971Z" fill="#15636B"/>
<path fill-rule="evenodd" clip-rule="evenodd" d="M363.478 222.896H373.553V212.821H363.478V222.896Z" fill="#15636B"/>
<path fill-rule="evenodd" clip-rule="evenodd" d="M373.553 263.196H383.628V253.121H373.553V263.196Z" fill="#860864"/>
<path fill-rule="evenodd" clip-rule="evenodd" d="M373.553 253.12H383.628V243.046H373.553V253.12Z" fill="#C8FF16"/>
<path fill-rule="evenodd" clip-rule="evenodd" d="M373.553 243.046H383.628V232.971H373.553V243.046Z" fill="#860864"/>
<path fill-rule="evenodd" clip-rule="evenodd" d="M373.553 232.971H383.628V222.896H373.553V232.971Z" fill="#2B0A3D"/>
<path fill-rule="evenodd" clip-rule="evenodd" d="M373.553 222.896H383.628V212.821H373.553V222.896Z" fill="#15636B"/>
<path fill-rule="evenodd" clip-rule="evenodd" d="M383.628 283.346H393.703V273.271H383.628V283.346Z" fill="#2B0A3D"/>
<path fill-rule="evenodd" clip-rule="evenodd" d="M383.628 273.271H393.703V263.196H383.628V273.271Z" fill="#2B0A3D"/>
<path fill-rule="evenodd" clip-rule="evenodd" d="M383.628 263.196H393.703V253.121H383.628V263.196Z" fill="#860864"/>
<path fill-rule="evenodd" clip-rule="evenodd" d="M383.628 253.12H393.703V243.046H383.628V253.12Z" fill="#CB2980"/>
<path fill-rule="evenodd" clip-rule="evenodd" d="M383.628 243.046H393.703V232.971H383.628V243.046Z" fill="#C8FF16"/>
<path fill-rule="evenodd" clip-rule="evenodd" d="M383.628 232.971H393.703V222.896H383.628V232.971Z" fill="#860864"/>
<path fill-rule="evenodd" clip-rule="evenodd" d="M383.628 222.896H393.703V212.821H383.628V222.896Z" fill="#860864"/>
<path fill-rule="evenodd" clip-rule="evenodd" d="M393.703 263.196H403.778V253.121H393.703V263.196Z" fill="#860864"/>
<path fill-rule="evenodd" clip-rule="evenodd" d="M393.703 253.12H403.778V243.046H393.703V253.12Z" fill="#C8FF16"/>
<path fill-rule="evenodd" clip-rule="evenodd" d="M393.703 243.046H403.778V232.971H393.703V243.046Z" fill="#860864"/>
<path fill-rule="evenodd" clip-rule="evenodd" d="M393.703 232.971H403.778V222.896H393.703V232.971Z" fill="#860864"/>
<path fill-rule="evenodd" clip-rule="evenodd" d="M403.778 212.821H413.853V202.746H403.778V212.821Z" fill="#15636B"/>
<path fill-rule="evenodd" clip-rule="evenodd" d="M403.778 202.745H413.853V192.671H403.778V202.745Z" fill="#15636B"/>
<path fill-rule="evenodd" clip-rule="evenodd" d="M413.853 243.046H423.928V232.971H413.853V243.046Z" fill="#860864"/>
<path fill-rule="evenodd" clip-rule="evenodd" d="M413.853 232.971H423.928V222.896H413.853V232.971Z" fill="#860864"/>
<path fill-rule="evenodd" clip-rule="evenodd" d="M413.853 222.896H423.928V212.821H413.853V222.896Z" fill="#860864"/>
<path fill-rule="evenodd" clip-rule="evenodd" d="M413.853 212.821H423.928V202.746H413.853V212.821Z" fill="#2B0A3D"/>
<path fill-rule="evenodd" clip-rule="evenodd" d="M413.853 202.745H423.928V192.671H413.853V202.745Z" fill="#15636B"/>
<path fill-rule="evenodd" clip-rule="evenodd" d="M423.928 263.196H434.003V253.121H423.928V263.196Z" fill="#860864"/>
<path fill-rule="evenodd" clip-rule="evenodd" d="M423.928 253.12H434.003V243.046H423.928V253.12Z" fill="#860864"/>
<path fill-rule="evenodd" clip-rule="evenodd" d="M423.928 243.046H434.003V232.971H423.928V243.046Z" fill="#860864"/>
<path fill-rule="evenodd" clip-rule="evenodd" d="M423.928 232.971H434.003V222.896H423.928V232.971Z" fill="#CB2980"/>
<path fill-rule="evenodd" clip-rule="evenodd" d="M423.928 222.896H434.003V212.821H423.928V222.896Z" fill="#860864"/>
<path fill-rule="evenodd" clip-rule="evenodd" d="M434.003 273.271H444.078V263.196H434.003V273.271Z" fill="#860864"/>
<path fill-rule="evenodd" clip-rule="evenodd" d="M434.003 263.196H444.078V253.121H434.003V263.196Z" fill="#860864"/>
<path fill-rule="evenodd" clip-rule="evenodd" d="M434.003 253.12H444.078V243.046H434.003V253.12Z" fill="#CB2980"/>
<path fill-rule="evenodd" clip-rule="evenodd" d="M434.003 243.046H444.078V232.971H434.003V243.046Z" fill="#860864"/>
<path fill-rule="evenodd" clip-rule="evenodd" d="M434.003 232.971H444.078V222.896H434.003V232.971Z" fill="#860864"/>
<path fill-rule="evenodd" clip-rule="evenodd" d="M434.003 202.745H444.078V192.671H434.003V202.745Z" fill="#CB2980"/>
<path fill-rule="evenodd" clip-rule="evenodd" d="M434.003 192.671H444.078V182.596H434.003V192.671Z" fill="#860864"/>
<path fill-rule="evenodd" clip-rule="evenodd" d="M444.078 273.271H454.153V263.196H444.078V273.271Z" fill="#860864"/>
<path fill-rule="evenodd" clip-rule="evenodd" d="M444.078 263.196H454.153V253.121H444.078V263.196Z" fill="#2B0A3D"/>
<path fill-rule="evenodd" clip-rule="evenodd" d="M444.078 253.12H454.153V243.046H444.078V253.12Z" fill="#860864"/>
<path fill-rule="evenodd" clip-rule="evenodd" d="M444.078 243.046H454.153V232.971H444.078V243.046Z" fill="#860864"/>
<path fill-rule="evenodd" clip-rule="evenodd" d="M444.078 212.821H454.153V202.746H444.078V212.821Z" fill="#860864"/>
<path fill-rule="evenodd" clip-rule="evenodd" d="M444.078 202.745H454.153V192.671H444.078V202.745Z" fill="#860864"/>
<path fill-rule="evenodd" clip-rule="evenodd" d="M444.078 192.671H454.153V182.596H444.078V192.671Z" fill="#860864"/>
<path fill-rule="evenodd" clip-rule="evenodd" d="M444.078 182.596H454.153V172.521H444.078V182.596Z" fill="#860864"/>
<path fill-rule="evenodd" clip-rule="evenodd" d="M444.078 172.521H454.153V162.446H444.078V172.521Z" fill="#15636B"/>
<path fill-rule="evenodd" clip-rule="evenodd" d="M444.078 162.446H454.153V152.371H444.078V162.446Z" fill="#15636B"/>
<path fill-rule="evenodd" clip-rule="evenodd" d="M454.153 273.271H464.228V263.196H454.153V273.271Z" fill="#2B0A3D"/>
<path fill-rule="evenodd" clip-rule="evenodd" d="M454.153 222.896H464.228V212.821H454.153V222.896Z" fill="#860864"/>
<path fill-rule="evenodd" clip-rule="evenodd" d="M454.153 212.821H464.228V202.746H454.153V212.821Z" fill="#860864"/>
<path fill-rule="evenodd" clip-rule="evenodd" d="M454.153 202.745H464.228V192.671H454.153V202.745Z" fill="#860864"/>
<path fill-rule="evenodd" clip-rule="evenodd" d="M454.153 192.671H464.228V182.596H454.153V192.671Z" fill="#CB2980"/>
<path fill-rule="evenodd" clip-rule="evenodd" d="M454.153 182.596H464.228V172.521H454.153V182.596Z" fill="#860864"/>
<path fill-rule="evenodd" clip-rule="evenodd" d="M454.153 172.521H464.228V162.446H454.153V172.521Z" fill="#2B0A3D"/>
<path fill-rule="evenodd" clip-rule="evenodd" d="M454.153 162.446H464.228V152.371H454.153V162.446Z" fill="#15636B"/>
<path fill-rule="evenodd" clip-rule="evenodd" d="M464.228 283.346H474.303V273.271H464.228V283.346Z" fill="#2B0A3D"/>
<path fill-rule="evenodd" clip-rule="evenodd" d="M464.228 222.896H474.303V212.821H464.228V222.896Z" fill="#860864"/>
<path fill-rule="evenodd" clip-rule="evenodd" d="M464.228 212.821H474.303V202.746H464.228V212.821Z" fill="#CB2980"/>
<path fill-rule="evenodd" clip-rule="evenodd" d="M464.228 202.745H474.303V192.671H464.228V202.745Z" fill="#860864"/>
<path fill-rule="evenodd" clip-rule="evenodd" d="M464.228 192.671H474.303V182.596H464.228V192.671Z" fill="#860864"/>
<path fill-rule="evenodd" clip-rule="evenodd" d="M464.228 182.596H474.303V172.521H464.228V182.596Z" fill="#860864"/>
<path fill-rule="evenodd" clip-rule="evenodd" d="M464.228 172.521H474.303V162.446H464.228V172.521Z" fill="#15636B"/>
<path fill-rule="evenodd" clip-rule="evenodd" d="M464.228 162.446H474.303V152.371H464.228V162.446Z" fill="#15636B"/>
<path fill-rule="evenodd" clip-rule="evenodd" d="M474.303 232.971H484.378V222.896H474.303V232.971Z" fill="#2B0A3D"/>
<path fill-rule="evenodd" clip-rule="evenodd" d="M474.303 222.896H484.378V212.821H474.303V222.896Z" fill="#2B0A3D"/>
<path fill-rule="evenodd" clip-rule="evenodd" d="M474.303 202.745H484.378V192.671H474.303V202.745Z" fill="#860864"/>
<path fill-rule="evenodd" clip-rule="evenodd" d="M474.303 192.671H484.378V182.596H474.303V192.671Z" fill="#860864"/>
<path fill-rule="evenodd" clip-rule="evenodd" d="M484.378 232.971H494.453V222.896H484.378V232.971Z" fill="#2B0A3D"/>
<path fill-rule="evenodd" clip-rule="evenodd" d="M494.453 232.971H504.528V222.896H494.453V232.971Z" fill="#2B0A3D"/>
<path fill-rule="evenodd" clip-rule="evenodd" d="M494.453 222.896H504.528V212.821H494.453V222.896Z" fill="#2B0A3D"/>
<path fill-rule="evenodd" clip-rule="evenodd" d="M413.845 142.296H423.92V132.221H413.845V142.296Z" fill="#CB2980"/>
<path fill-rule="evenodd" clip-rule="evenodd" d="M363.47 142.296H373.545V132.221H363.47V142.296Z" fill="#CB2980"/>
<path fill-rule="evenodd" clip-rule="evenodd" d="M363.47 132.221H373.545V122.146H363.47V132.221Z" fill="#CB2980"/>
<path fill-rule="evenodd" clip-rule="evenodd" d="M0.770996 192.671H10.846V182.596H0.770996V192.671Z" fill="#CB2980"/>
<path fill-rule="evenodd" clip-rule="evenodd" d="M0.770996 182.596H10.846V172.521H0.770996V182.596Z" fill="#CB2980"/>
<path fill-rule="evenodd" clip-rule="evenodd" d="M0.770996 172.521H10.846V162.446H0.770996V172.521Z" fill="#CB2980"/>
<path fill-rule="evenodd" clip-rule="evenodd" d="M0.770996 162.446H10.846V152.371H0.770996V162.446Z" fill="#CB2980"/>
<path fill-rule="evenodd" clip-rule="evenodd" d="M0.770996 152.37H10.846V142.296H0.770996V152.37Z" fill="#CB2980"/>
<path fill-rule="evenodd" clip-rule="evenodd" d="M0.770996 142.296H10.846V132.221H0.770996V142.296Z" fill="#CB2980"/>
<path fill-rule="evenodd" clip-rule="evenodd" d="M0.770996 61.6958H10.846V51.6208H0.770996V61.6958Z" fill="#860864"/>
<path fill-rule="evenodd" clip-rule="evenodd" d="M10.845 303.495H20.92V293.421H10.845V303.495Z" fill="#860864"/>
<path fill-rule="evenodd" clip-rule="evenodd" d="M10.845 202.745H20.92V192.671H10.845V202.745Z" fill="#CB2980"/>
<path fill-rule="evenodd" clip-rule="evenodd" d="M10.845 192.671H20.92V182.596H10.845V192.671Z" fill="#CB2980"/>
<path fill-rule="evenodd" clip-rule="evenodd" d="M10.845 182.596H20.92V172.521H10.845V182.596Z" fill="#FF7E83"/>
<path fill-rule="evenodd" clip-rule="evenodd" d="M10.845 172.521H20.92V162.446H10.845V172.521Z" fill="#FF7E83"/>
<path fill-rule="evenodd" clip-rule="evenodd" d="M10.845 162.446H20.92V152.371H10.845V162.446Z" fill="#FF7E83"/>
<path fill-rule="evenodd" clip-rule="evenodd" d="M10.845 152.37H20.92V142.296H10.845V152.37Z" fill="#FF7E83"/>
<path fill-rule="evenodd" clip-rule="evenodd" d="M10.845 142.296H20.92V132.221H10.845V142.296Z" fill="#FF7E83"/>
<path fill-rule="evenodd" clip-rule="evenodd" d="M10.845 81.846H20.92V71.771H10.845V81.846Z" fill="#860864"/>
<path fill-rule="evenodd" clip-rule="evenodd" d="M10.845 71.7708H20.92V61.6958H10.845V71.7708Z" fill="#860864"/>
<path fill-rule="evenodd" clip-rule="evenodd" d="M10.845 61.6958H20.92V51.6208H10.845V61.6958Z" fill="#860864"/>
<path fill-rule="evenodd" clip-rule="evenodd" d="M20.921 303.495H30.996V293.421H20.921V303.495Z" fill="#2B0A3D"/>
<path fill-rule="evenodd" clip-rule="evenodd" d="M20.921 293.421H30.996V283.346H20.921V293.421Z" fill="#860864"/>
<path fill-rule="evenodd" clip-rule="evenodd" d="M20.921 202.745H30.996V192.671H20.921V202.745Z" fill="#FF7E83"/>
<path fill-rule="evenodd" clip-rule="evenodd" d="M20.921 192.671H30.996V182.596H20.921V192.671Z" fill="#FF7E83"/>
<path fill-rule="evenodd" clip-rule="evenodd" d="M20.921 182.596H30.996V172.521H20.921V182.596Z" fill="#FF7E83"/>
<path fill-rule="evenodd" clip-rule="evenodd" d="M20.921 162.446H30.996V152.371H20.921V162.446Z" fill="#CB2980"/>
<path fill-rule="evenodd" clip-rule="evenodd" d="M20.921 152.37H30.996V142.296H20.921V152.37Z" fill="#FF7E83"/>
<path fill-rule="evenodd" clip-rule="evenodd" d="M20.921 142.296H30.996V132.221H20.921V142.296Z" fill="#FF7E83"/>
<path fill-rule="evenodd" clip-rule="evenodd" d="M20.921 91.9209H30.996V81.8459H20.921V91.9209Z" fill="#860864"/>
<path fill-rule="evenodd" clip-rule="evenodd" d="M20.921 81.846H30.996V71.771H20.921V81.846Z" fill="#860864"/>
<path fill-rule="evenodd" clip-rule="evenodd" d="M20.921 71.7708H30.996V61.6958H20.921V71.7708Z" fill="#860864"/>
<path fill-rule="evenodd" clip-rule="evenodd" d="M20.921 61.6958H30.996V51.6208H20.921V61.6958Z" fill="#95E616"/>
<path fill-rule="evenodd" clip-rule="evenodd" d="M30.996 303.495H41.071V293.421H30.996V303.495Z" fill="#2B0A3D"/>
<path fill-rule="evenodd" clip-rule="evenodd" d="M30.996 293.421H41.071V283.346H30.996V293.421Z" fill="#860864"/>
<path fill-rule="evenodd" clip-rule="evenodd" d="M30.996 283.346H41.071V273.271H30.996V283.346Z" fill="#15636B"/>
<path fill-rule="evenodd" clip-rule="evenodd" d="M30.996 273.271H41.071V263.196H30.996V273.271Z" fill="#0F999C"/>
<path fill-rule="evenodd" clip-rule="evenodd" d="M30.996 202.745H41.071V192.671H30.996V202.745Z" fill="#FF7E83"/>
<path fill-rule="evenodd" clip-rule="evenodd" d="M30.996 192.671H41.071V182.596H30.996V192.671Z" fill="#FF7E83"/>
<path fill-rule="evenodd" clip-rule="evenodd" d="M30.996 91.9209H41.071V81.8459H30.996V91.9209Z" fill="#95E616"/>
<path fill-rule="evenodd" clip-rule="evenodd" d="M30.996 81.846H41.071V71.771H30.996V81.846Z" fill="#860864"/>
<path fill-rule="evenodd" clip-rule="evenodd" d="M30.996 71.7708H41.071V61.6958H30.996V71.7708Z" fill="#860864"/>
<path fill-rule="evenodd" clip-rule="evenodd" d="M30.996 61.6958H41.071V51.6208H30.996V61.6958Z" fill="#95E616"/>
<path fill-rule="evenodd" clip-rule="evenodd" d="M30.996 51.6209H41.071V41.5459H30.996V51.6209Z" fill="#C8FF16"/>
<path fill-rule="evenodd" clip-rule="evenodd" d="M41.071 303.495H51.146V293.421H41.071V303.495Z" fill="#2B0A3D"/>
<path fill-rule="evenodd" clip-rule="evenodd" d="M41.071 293.421H51.146V283.346H41.071V293.421Z" fill="#15636B"/>
<path fill-rule="evenodd" clip-rule="evenodd" d="M41.071 283.346H51.146V273.271H41.071V283.346Z" fill="#15636B"/>
<path fill-rule="evenodd" clip-rule="evenodd" d="M41.071 273.271H51.146V263.196H41.071V273.271Z" fill="#15636B"/>
<path fill-rule="evenodd" clip-rule="evenodd" d="M41.071 263.196H51.146V253.121H41.071V263.196Z" fill="#0F999C"/>
<path fill-rule="evenodd" clip-rule="evenodd" d="M41.071 222.896H51.146V212.821H41.071V222.896Z" fill="#15636B"/>
<path fill-rule="evenodd" clip-rule="evenodd" d="M41.071 212.821H51.146V202.746H41.071V212.821Z" fill="#FF7E83"/>
<path fill-rule="evenodd" clip-rule="evenodd" d="M41.071 202.745H51.146V192.671H41.071V202.745Z" fill="#FF7E83"/>
<path fill-rule="evenodd" clip-rule="evenodd" d="M41.071 192.671H51.146V182.596H41.071V192.671Z" fill="#FF7E83"/>
<path fill-rule="evenodd" clip-rule="evenodd" d="M41.071 182.596H51.146V172.521H41.071V182.596Z" fill="#15636B"/>
<path fill-rule="evenodd" clip-rule="evenodd" d="M41.071 132.221H51.146V122.146H41.071V132.221Z" fill="#860864"/>
<path fill-rule="evenodd" clip-rule="evenodd" d="M41.071 122.146H51.146V112.071H41.071V122.146Z" fill="#CB2980"/>
<path fill-rule="evenodd" clip-rule="evenodd" d="M41.071 112.071H51.146V101.996H41.071V112.071Z" fill="#FF7E83"/>
<path fill-rule="evenodd" clip-rule="evenodd" d="M41.071 101.996H51.146V91.9209H41.071V101.996Z" fill="#00C37B"/>
<path fill-rule="evenodd" clip-rule="evenodd" d="M41.071 91.9209H51.146V81.8459H41.071V91.9209Z" fill="#95E616"/>
<path fill-rule="evenodd" clip-rule="evenodd" d="M41.071 81.846H51.146V71.771H41.071V81.846Z" fill="#860864"/>
<path fill-rule="evenodd" clip-rule="evenodd" d="M41.071 71.7708H51.146V61.6958H41.071V71.7708Z" fill="#860864"/>
<path fill-rule="evenodd" clip-rule="evenodd" d="M41.071 61.6958H51.146V51.6208H41.071V61.6958Z" fill="#95E616"/>
<path fill-rule="evenodd" clip-rule="evenodd" d="M41.071 51.6209H51.146V41.5459H41.071V51.6209Z" fill="#95E616"/>
<path fill-rule="evenodd" clip-rule="evenodd" d="M41.071 41.5459H51.146V31.4709H41.071V41.5459Z" fill="#95E616"/>
<path fill-rule="evenodd" clip-rule="evenodd" d="M51.146 303.495H61.221V293.421H51.146V303.495Z" fill="#2B0A3D"/>
<path fill-rule="evenodd" clip-rule="evenodd" d="M51.146 293.421H61.221V283.346H51.146V293.421Z" fill="#15636B"/>
<path fill-rule="evenodd" clip-rule="evenodd" d="M51.146 283.346H61.221V273.271H51.146V283.346Z" fill="#15636B"/>
<path fill-rule="evenodd" clip-rule="evenodd" d="M51.146 273.271H61.221V263.196H51.146V273.271Z" fill="#15636B"/>
<path fill-rule="evenodd" clip-rule="evenodd" d="M51.146 263.196H61.221V253.121H51.146V263.196Z" fill="#15636B"/>
<path fill-rule="evenodd" clip-rule="evenodd" d="M51.146 253.12H61.221V243.046H51.146V253.12Z" fill="#0F999C"/>
<path fill-rule="evenodd" clip-rule="evenodd" d="M51.146 243.046H61.221V232.971H51.146V243.046Z" fill="#2B0A3D"/>
<path fill-rule="evenodd" clip-rule="evenodd" d="M51.146 232.971H61.221V222.896H51.146V232.971Z" fill="#0F999C"/>
<path fill-rule="evenodd" clip-rule="evenodd" d="M51.146 222.896H61.221V212.821H51.146V222.896Z" fill="#15636B"/>
<path fill-rule="evenodd" clip-rule="evenodd" d="M51.146 212.821H61.221V202.746H51.146V212.821Z" fill="#15636B"/>
<path fill-rule="evenodd" clip-rule="evenodd" d="M51.146 202.745H61.221V192.671H51.146V202.745Z" fill="#15636B"/>
<path fill-rule="evenodd" clip-rule="evenodd" d="M51.146 192.671H61.221V182.596H51.146V192.671Z" fill="#15636B"/>
<path fill-rule="evenodd" clip-rule="evenodd" d="M51.146 182.596H61.221V172.521H51.146V182.596Z" fill="#15636B"/>
<path fill-rule="evenodd" clip-rule="evenodd" d="M51.146 152.37H61.221V142.296H51.146V152.37Z" fill="#CB2980"/>
<path fill-rule="evenodd" clip-rule="evenodd" d="M51.146 142.296H61.221V132.221H51.146V142.296Z" fill="#CB2980"/>
<path fill-rule="evenodd" clip-rule="evenodd" d="M51.146 132.221H61.221V122.146H51.146V132.221Z" fill="#CB2980"/>
<path fill-rule="evenodd" clip-rule="evenodd" d="M51.146 122.146H61.221V112.071H51.146V122.146Z" fill="#CB2980"/>
<path fill-rule="evenodd" clip-rule="evenodd" d="M51.146 112.071H61.221V101.996H51.146V112.071Z" fill="#00C37B"/>
<path fill-rule="evenodd" clip-rule="evenodd" d="M51.146 101.996H61.221V91.9209H51.146V101.996Z" fill="#00C37B"/>
<path fill-rule="evenodd" clip-rule="evenodd" d="M51.146 91.9209H61.221V81.8459H51.146V91.9209Z" fill="#00C37B"/>
<path fill-rule="evenodd" clip-rule="evenodd" d="M51.146 81.846H61.221V71.771H51.146V81.846Z" fill="#860864"/>
<path fill-rule="evenodd" clip-rule="evenodd" d="M51.146 71.7708H61.221V61.6958H51.146V71.7708Z" fill="#860864"/>
<path fill-rule="evenodd" clip-rule="evenodd" d="M51.146 61.6958H61.221V51.6208H51.146V61.6958Z" fill="#860864"/>
<path fill-rule="evenodd" clip-rule="evenodd" d="M51.146 51.6209H61.221V41.5459H51.146V51.6209Z" fill="#95E616"/>
<path fill-rule="evenodd" clip-rule="evenodd" d="M51.146 41.5459H61.221V31.4709H51.146V41.5459Z" fill="#C8FF16"/>
<path fill-rule="evenodd" clip-rule="evenodd" d="M61.22 273.271H71.295V263.196H61.22V273.271Z" fill="#15636B"/>
<path fill-rule="evenodd" clip-rule="evenodd" d="M61.22 263.196H71.295V253.121H61.22V263.196Z" fill="#15636B"/>
<path fill-rule="evenodd" clip-rule="evenodd" d="M61.22 253.12H71.295V243.046H61.22V253.12Z" fill="#15636B"/>
<path fill-rule="evenodd" clip-rule="evenodd" d="M61.22 243.046H71.295V232.971H61.22V243.046Z" fill="#2B0A3D"/>
<path fill-rule="evenodd" clip-rule="evenodd" d="M61.22 232.971H71.295V222.896H61.22V232.971Z" fill="#15636B"/>
<path fill-rule="evenodd" clip-rule="evenodd" d="M61.22 222.896H71.295V212.821H61.22V222.896Z" fill="#15636B"/>
<path fill-rule="evenodd" clip-rule="evenodd" d="M61.22 212.821H71.295V202.746H61.22V212.821Z" fill="#15636B"/>
<path fill-rule="evenodd" clip-rule="evenodd" d="M61.22 202.745H71.295V192.671H61.22V202.745Z" fill="#15636B"/>
<path fill-rule="evenodd" clip-rule="evenodd" d="M61.22 192.671H71.295V182.596H61.22V192.671Z" fill="#15636B"/>
<path fill-rule="evenodd" clip-rule="evenodd" d="M61.22 182.596H71.295V172.521H61.22V182.596Z" fill="#15636B"/>
<path fill-rule="evenodd" clip-rule="evenodd" d="M61.22 172.521H71.295V162.446H61.22V172.521Z" fill="#CB2980"/>
<path fill-rule="evenodd" clip-rule="evenodd" d="M61.22 162.446H71.295V152.371H61.22V162.446Z" fill="#CB2980"/>
<path fill-rule="evenodd" clip-rule="evenodd" d="M61.22 152.37H71.295V142.296H61.22V152.37Z" fill="#FF7E83"/>
<path fill-rule="evenodd" clip-rule="evenodd" d="M61.22 142.296H71.295V132.221H61.22V142.296Z" fill="#FF7E83"/>
<path fill-rule="evenodd" clip-rule="evenodd" d="M61.22 132.221H71.295V122.146H61.22V132.221Z" fill="#FF7E83"/>
<path fill-rule="evenodd" clip-rule="evenodd" d="M61.22 122.146H71.295V112.071H61.22V122.146Z" fill="#FF7E83"/>
<path fill-rule="evenodd" clip-rule="evenodd" d="M61.22 112.071H71.295V101.996H61.22V112.071Z" fill="#FF7E83"/>
<path fill-rule="evenodd" clip-rule="evenodd" d="M61.22 101.996H71.295V91.9209H61.22V101.996Z" fill="#FF7E83"/>
<path fill-rule="evenodd" clip-rule="evenodd" d="M61.22 91.9209H71.295V81.8459H61.22V91.9209Z" fill="#00C37B"/>
<path fill-rule="evenodd" clip-rule="evenodd" d="M61.22 81.846H71.295V71.771H61.22V81.846Z" fill="#860864"/>
<path fill-rule="evenodd" clip-rule="evenodd" d="M61.22 71.7708H71.295V61.6958H61.22V71.7708Z" fill="#860864"/>
<path fill-rule="evenodd" clip-rule="evenodd" d="M61.22 61.6958H71.295V51.6208H61.22V61.6958Z" fill="#860864"/>
<path fill-rule="evenodd" clip-rule="evenodd" d="M61.22 51.6209H71.295V41.5459H61.22V51.6209Z" fill="#95E616"/>
<path fill-rule="evenodd" clip-rule="evenodd" d="M61.22 41.5459H71.295V31.4709H61.22V41.5459Z" fill="#C8FF16"/>
<path fill-rule="evenodd" clip-rule="evenodd" d="M61.22 11.3208H71.295V1.24585H61.22V11.3208Z" fill="#C8FF16"/>
<path fill-rule="evenodd" clip-rule="evenodd" d="M71.296 263.196H81.371V253.121H71.296V263.196Z" fill="#15636B"/>
<path fill-rule="evenodd" clip-rule="evenodd" d="M71.296 253.12H81.371V243.046H71.296V253.12Z" fill="#15636B"/>
<path fill-rule="evenodd" clip-rule="evenodd" d="M71.296 243.046H81.371V232.971H71.296V243.046Z" fill="#2B0A3D"/>
<path fill-rule="evenodd" clip-rule="evenodd" d="M71.296 232.971H81.371V222.896H71.296V232.971Z" fill="#15636B"/>
<path fill-rule="evenodd" clip-rule="evenodd" d="M71.296 222.896H81.371V212.821H71.296V222.896Z" fill="#15636B"/>
<path fill-rule="evenodd" clip-rule="evenodd" d="M71.296 212.821H81.371V202.746H71.296V212.821Z" fill="#15636B"/>
<path fill-rule="evenodd" clip-rule="evenodd" d="M71.296 202.745H81.371V192.671H71.296V202.745Z" fill="#15636B"/>
<path fill-rule="evenodd" clip-rule="evenodd" d="M71.296 192.671H81.371V182.596H71.296V192.671Z" fill="#0F999C"/>
<path fill-rule="evenodd" clip-rule="evenodd" d="M71.296 182.596H81.371V172.521H71.296V182.596Z" fill="#0F999C"/>
<path fill-rule="evenodd" clip-rule="evenodd" d="M71.296 172.521H81.371V162.446H71.296V172.521Z" fill="#CB2980"/>
<path fill-rule="evenodd" clip-rule="evenodd" d="M71.296 162.446H81.371V152.371H71.296V162.446Z" fill="#FF7E83"/>
<path fill-rule="evenodd" clip-rule="evenodd" d="M71.296 152.37H81.371V142.296H71.296V152.37Z" fill="#FF7E83"/>
<path fill-rule="evenodd" clip-rule="evenodd" d="M71.296 142.296H81.371V132.221H71.296V142.296Z" fill="#2B0A3D"/>
<path fill-rule="evenodd" clip-rule="evenodd" d="M71.296 132.221H81.371V122.146H71.296V132.221Z" fill="white"/>
<path fill-rule="evenodd" clip-rule="evenodd" d="M71.296 122.146H81.371V112.071H71.296V122.146Z" fill="#FF7E83"/>
<path fill-rule="evenodd" clip-rule="evenodd" d="M71.296 112.071H81.371V101.996H71.296V112.071Z" fill="#2B0A3D"/>
<path fill-rule="evenodd" clip-rule="evenodd" d="M71.296 101.996H81.371V91.9209H71.296V101.996Z" fill="#FF7E83"/>
<path fill-rule="evenodd" clip-rule="evenodd" d="M71.296 91.9209H81.371V81.8459H71.296V91.9209Z" fill="#FF7E83"/>
<path fill-rule="evenodd" clip-rule="evenodd" d="M71.296 81.846H81.371V71.771H71.296V81.846Z" fill="#00C37B"/>
<path fill-rule="evenodd" clip-rule="evenodd" d="M71.296 71.7708H81.371V61.6958H71.296V71.7708Z" fill="#860864"/>
<path fill-rule="evenodd" clip-rule="evenodd" d="M71.296 61.6958H81.371V51.6208H71.296V61.6958Z" fill="#860864"/>
<path fill-rule="evenodd" clip-rule="evenodd" d="M71.296 51.6209H81.371V41.5459H71.296V51.6209Z" fill="#95E616"/>
<path fill-rule="evenodd" clip-rule="evenodd" d="M71.296 41.5459H81.371V31.4709H71.296V41.5459Z" fill="#95E616"/>
<path fill-rule="evenodd" clip-rule="evenodd" d="M71.296 11.3208H81.371V1.24585H71.296V11.3208Z" fill="#C8FF16"/>
<path fill-rule="evenodd" clip-rule="evenodd" d="M81.371 263.196H91.446V253.121H81.371V263.196Z" fill="#15636B"/>
<path fill-rule="evenodd" clip-rule="evenodd" d="M81.371 253.12H91.446V243.046H81.371V253.12Z" fill="#0F999C"/>
<path fill-rule="evenodd" clip-rule="evenodd" d="M81.371 243.046H91.446V232.971H81.371V243.046Z" fill="#2B0A3D"/>
<path fill-rule="evenodd" clip-rule="evenodd" d="M81.371 232.971H91.446V222.896H81.371V232.971Z" fill="#0F999C"/>
<path fill-rule="evenodd" clip-rule="evenodd" d="M81.371 222.896H91.446V212.821H81.371V222.896Z" fill="#15636B"/>
<path fill-rule="evenodd" clip-rule="evenodd" d="M81.371 212.821H91.446V202.746H81.371V212.821Z" fill="#15636B"/>
<path fill-rule="evenodd" clip-rule="evenodd" d="M81.371 202.745H91.446V192.671H81.371V202.745Z" fill="#15636B"/>
<path fill-rule="evenodd" clip-rule="evenodd" d="M81.371 192.671H91.446V182.596H81.371V192.671Z" fill="#0F999C"/>
<path fill-rule="evenodd" clip-rule="evenodd" d="M81.371 182.596H91.446V172.521H81.371V182.596Z" fill="#FF7E83"/>
<path fill-rule="evenodd" clip-rule="evenodd" d="M81.371 172.521H91.446V162.446H81.371V172.521Z" fill="#CB2980"/>
<path fill-rule="evenodd" clip-rule="evenodd" d="M81.371 162.446H91.446V152.371H81.371V162.446Z" fill="#FF7E83"/>
<path fill-rule="evenodd" clip-rule="evenodd" d="M81.371 152.37H91.446V142.296H81.371V152.37Z" fill="white"/>
<path fill-rule="evenodd" clip-rule="evenodd" d="M81.371 142.296H91.446V132.221H81.371V142.296Z" fill="#2B0A3D"/>
<path fill-rule="evenodd" clip-rule="evenodd" d="M81.371 132.221H91.446V122.146H81.371V132.221Z" fill="white"/>
<path fill-rule="evenodd" clip-rule="evenodd" d="M81.371 122.146H91.446V112.071H81.371V122.146Z" fill="#FF7E83"/>
<path fill-rule="evenodd" clip-rule="evenodd" d="M81.371 112.071H91.446V101.996H81.371V112.071Z" fill="#2B0A3D"/>
<path fill-rule="evenodd" clip-rule="evenodd" d="M81.371 101.996H91.446V91.9209H81.371V101.996Z" fill="#FF7E83"/>
<path fill-rule="evenodd" clip-rule="evenodd" d="M81.371 91.9209H91.446V81.8459H81.371V91.9209Z" fill="#FF7E83"/>
<path fill-rule="evenodd" clip-rule="evenodd" d="M81.371 81.846H91.446V71.771H81.371V81.846Z" fill="#00C37B"/>
<path fill-rule="evenodd" clip-rule="evenodd" d="M81.371 71.7708H91.446V61.6958H81.371V71.7708Z" fill="#860864"/>
<path fill-rule="evenodd" clip-rule="evenodd" d="M81.371 61.6958H91.446V51.6208H81.371V61.6958Z" fill="#860864"/>
<path fill-rule="evenodd" clip-rule="evenodd" d="M81.371 51.6209H91.446V41.5459H81.371V51.6209Z" fill="#95E616"/>
<path fill-rule="evenodd" clip-rule="evenodd" d="M81.371 41.5459H91.446V31.4709H81.371V41.5459Z" fill="#95E616"/>
<path fill-rule="evenodd" clip-rule="evenodd" d="M81.371 21.3958H91.446V11.3208H81.371V21.3958Z" fill="#C8FF16"/>
<path fill-rule="evenodd" clip-rule="evenodd" d="M81.371 11.3208H91.446V1.24585H81.371V11.3208Z" fill="#C8FF16"/>
<path fill-rule="evenodd" clip-rule="evenodd" d="M91.446 263.196H101.521V253.121H91.446V263.196Z" fill="#15636B"/>
<path fill-rule="evenodd" clip-rule="evenodd" d="M91.446 253.12H101.521V243.046H91.446V253.12Z" fill="#2B0A3D"/>
<path fill-rule="evenodd" clip-rule="evenodd" d="M91.446 243.046H101.521V232.971H91.446V243.046Z" fill="#2B0A3D"/>
<path fill-rule="evenodd" clip-rule="evenodd" d="M91.446 232.971H101.521V222.896H91.446V232.971Z" fill="#2B0A3D"/>
<path fill-rule="evenodd" clip-rule="evenodd" d="M91.446 222.896H101.521V212.821H91.446V222.896Z" fill="#15636B"/>
<path fill-rule="evenodd" clip-rule="evenodd" d="M91.446 212.821H101.521V202.746H91.446V212.821Z" fill="#15636B"/>
<path fill-rule="evenodd" clip-rule="evenodd" d="M91.446 202.745H101.521V192.671H91.446V202.745Z" fill="#15636B"/>
<path fill-rule="evenodd" clip-rule="evenodd" d="M91.446 192.671H101.521V182.596H91.446V192.671Z" fill="#0F999C"/>
<path fill-rule="evenodd" clip-rule="evenodd" d="M91.446 182.596H101.521V172.521H91.446V182.596Z" fill="#FF7E83"/>
<path fill-rule="evenodd" clip-rule="evenodd" d="M91.446 172.521H101.521V162.446H91.446V172.521Z" fill="#FF7E83"/>
<path fill-rule="evenodd" clip-rule="evenodd" d="M91.446 162.446H101.521V152.371H91.446V162.446Z" fill="#FF7E83"/>
<path fill-rule="evenodd" clip-rule="evenodd" d="M91.446 152.37H101.521V142.296H91.446V152.37Z" fill="white"/>
<path fill-rule="evenodd" clip-rule="evenodd" d="M91.446 142.296H101.521V132.221H91.446V142.296Z" fill="#2B0A3D"/>
<path fill-rule="evenodd" clip-rule="evenodd" d="M91.446 132.221H101.521V122.146H91.446V132.221Z" fill="white"/>
<path fill-rule="evenodd" clip-rule="evenodd" d="M91.446 122.146H101.521V112.071H91.446V122.146Z" fill="#FF7E83"/>
<path fill-rule="evenodd" clip-rule="evenodd" d="M91.446 112.071H101.521V101.996H91.446V112.071Z" fill="#FF7E83"/>
<path fill-rule="evenodd" clip-rule="evenodd" d="M91.446 101.996H101.521V91.9209H91.446V101.996Z" fill="#FF7E83"/>
<path fill-rule="evenodd" clip-rule="evenodd" d="M91.446 91.9209H101.521V81.8459H91.446V91.9209Z" fill="#FF7E83"/>
<path fill-rule="evenodd" clip-rule="evenodd" d="M91.446 81.846H101.521V71.771H91.446V81.846Z" fill="#00C37B"/>
<path fill-rule="evenodd" clip-rule="evenodd" d="M91.446 71.7708H101.521V61.6958H91.446V71.7708Z" fill="#860864"/>
<path fill-rule="evenodd" clip-rule="evenodd" d="M91.446 61.6958H101.521V51.6208H91.446V61.6958Z" fill="#860864"/>
<path fill-rule="evenodd" clip-rule="evenodd" d="M91.446 51.6209H101.521V41.5459H91.446V51.6209Z" fill="#95E616"/>
<path fill-rule="evenodd" clip-rule="evenodd" d="M91.446 41.5459H101.521V31.4709H91.446V41.5459Z" fill="#95E616"/>
<path fill-rule="evenodd" clip-rule="evenodd" d="M91.446 21.3958H101.521V11.3208H91.446V21.3958Z" fill="#C8FF16"/>
<path fill-rule="evenodd" clip-rule="evenodd" d="M91.446 11.3208H101.521V1.24585H91.446V11.3208Z" fill="#C8FF16"/>
<path fill-rule="evenodd" clip-rule="evenodd" d="M101.521 263.196H111.596V253.121H101.521V263.196Z" fill="#15636B"/>
<path fill-rule="evenodd" clip-rule="evenodd" d="M101.521 253.12H111.596V243.046H101.521V253.12Z" fill="#15636B"/>
<path fill-rule="evenodd" clip-rule="evenodd" d="M101.521 243.046H111.596V232.971H101.521V243.046Z" fill="#2B0A3D"/>
<path fill-rule="evenodd" clip-rule="evenodd" d="M101.521 232.971H111.596V222.896H101.521V232.971Z" fill="#15636B"/>
<path fill-rule="evenodd" clip-rule="evenodd" d="M101.521 222.896H111.596V212.821H101.521V222.896Z" fill="#15636B"/>
<path fill-rule="evenodd" clip-rule="evenodd" d="M101.521 212.821H111.596V202.746H101.521V212.821Z" fill="#15636B"/>
<path fill-rule="evenodd" clip-rule="evenodd" d="M101.521 202.745H111.596V192.671H101.521V202.745Z" fill="#15636B"/>
<path fill-rule="evenodd" clip-rule="evenodd" d="M101.521 192.671H111.596V182.596H101.521V192.671Z" fill="#15636B"/>
<path fill-rule="evenodd" clip-rule="evenodd" d="M101.521 182.596H111.596V172.521H101.521V182.596Z" fill="#FF7E83"/>
<path fill-rule="evenodd" clip-rule="evenodd" d="M101.521 172.521H111.596V162.446H101.521V172.521Z" fill="#FF7E83"/>
<path fill-rule="evenodd" clip-rule="evenodd" d="M101.521 162.446H111.596V152.371H101.521V162.446Z" fill="#FF7E83"/>
<path fill-rule="evenodd" clip-rule="evenodd" d="M101.521 152.37H111.596V142.296H101.521V152.37Z" fill="white"/>
<path fill-rule="evenodd" clip-rule="evenodd" d="M101.521 142.296H111.596V132.221H101.521V142.296Z" fill="#2B0A3D"/>
<path fill-rule="evenodd" clip-rule="evenodd" d="M101.521 132.221H111.596V122.146H101.521V132.221Z" fill="white"/>
<path fill-rule="evenodd" clip-rule="evenodd" d="M101.521 122.146H111.596V112.071H101.521V122.146Z" fill="#FF7E83"/>
<path fill-rule="evenodd" clip-rule="evenodd" d="M101.521 112.071H111.596V101.996H101.521V112.071Z" fill="#FF7E83"/>
<path fill-rule="evenodd" clip-rule="evenodd" d="M101.521 101.996H111.596V91.9209H101.521V101.996Z" fill="#FF7E83"/>
<path fill-rule="evenodd" clip-rule="evenodd" d="M101.521 91.9209H111.596V81.8459H101.521V91.9209Z" fill="#FF7E83"/>
<path fill-rule="evenodd" clip-rule="evenodd" d="M101.521 81.846H111.596V71.771H101.521V81.846Z" fill="#00C37B"/>
<path fill-rule="evenodd" clip-rule="evenodd" d="M101.521 71.7708H111.596V61.6958H101.521V71.7708Z" fill="#860864"/>
<path fill-rule="evenodd" clip-rule="evenodd" d="M101.521 61.6958H111.596V51.6208H101.521V61.6958Z" fill="#860864"/>
<path fill-rule="evenodd" clip-rule="evenodd" d="M101.521 51.6209H111.596V41.5459H101.521V51.6209Z" fill="#00C37B"/>
<path fill-rule="evenodd" clip-rule="evenodd" d="M101.521 41.5459H111.596V31.4709H101.521V41.5459Z" fill="#95E616"/>
<path fill-rule="evenodd" clip-rule="evenodd" d="M101.521 31.471H111.596V21.396H101.521V31.471Z" fill="#C8FF16"/>
<path fill-rule="evenodd" clip-rule="evenodd" d="M101.521 21.3958H111.596V11.3208H101.521V21.3958Z" fill="#C8FF16"/>
<path fill-rule="evenodd" clip-rule="evenodd" d="M101.521 11.3208H111.596V1.24585H101.521V11.3208Z" fill="#C8FF16"/>
<path fill-rule="evenodd" clip-rule="evenodd" d="M111.595 273.271H121.67V263.196H111.595V273.271Z" fill="#15636B"/>
<path fill-rule="evenodd" clip-rule="evenodd" d="M111.595 263.196H121.67V253.121H111.595V263.196Z" fill="#15636B"/>
<path fill-rule="evenodd" clip-rule="evenodd" d="M111.595 253.12H121.67V243.046H111.595V253.12Z" fill="#15636B"/>
<path fill-rule="evenodd" clip-rule="evenodd" d="M111.595 243.046H121.67V232.971H111.595V243.046Z" fill="#2B0A3D"/>
<path fill-rule="evenodd" clip-rule="evenodd" d="M111.595 232.971H121.67V222.896H111.595V232.971Z" fill="#15636B"/>
<path fill-rule="evenodd" clip-rule="evenodd" d="M111.595 222.896H121.67V212.821H111.595V222.896Z" fill="#15636B"/>
<path fill-rule="evenodd" clip-rule="evenodd" d="M111.595 212.821H121.67V202.746H111.595V212.821Z" fill="#15636B"/>
<path fill-rule="evenodd" clip-rule="evenodd" d="M111.595 202.745H121.67V192.671H111.595V202.745Z" fill="#15636B"/>
<path fill-rule="evenodd" clip-rule="evenodd" d="M111.595 192.671H121.67V182.596H111.595V192.671Z" fill="#15636B"/>
<path fill-rule="evenodd" clip-rule="evenodd" d="M111.595 182.596H121.67V172.521H111.595V182.596Z" fill="#15636B"/>
<path fill-rule="evenodd" clip-rule="evenodd" d="M111.595 162.446H121.67V152.371H111.595V162.446Z" fill="#FF7E83"/>
<path fill-rule="evenodd" clip-rule="evenodd" d="M111.595 152.37H121.67V142.296H111.595V152.37Z" fill="#FF7E83"/>
<path fill-rule="evenodd" clip-rule="evenodd" d="M111.595 142.296H121.67V132.221H111.595V142.296Z" fill="#2B0A3D"/>
<path fill-rule="evenodd" clip-rule="evenodd" d="M111.595 132.221H121.67V122.146H111.595V132.221Z" fill="white"/>
<path fill-rule="evenodd" clip-rule="evenodd" d="M111.595 122.146H121.67V112.071H111.595V122.146Z" fill="#FF7E83"/>
<path fill-rule="evenodd" clip-rule="evenodd" d="M111.595 112.071H121.67V101.996H111.595V112.071Z" fill="#2B0A3D"/>
<path fill-rule="evenodd" clip-rule="evenodd" d="M111.595 101.996H121.67V91.9209H111.595V101.996Z" fill="#FF7E83"/>
<path fill-rule="evenodd" clip-rule="evenodd" d="M111.595 91.9209H121.67V81.8459H111.595V91.9209Z" fill="#FF7E83"/>
<path fill-rule="evenodd" clip-rule="evenodd" d="M111.595 81.846H121.67V71.771H111.595V81.846Z" fill="#00C37B"/>
<path fill-rule="evenodd" clip-rule="evenodd" d="M111.595 71.7708H121.67V61.6958H111.595V71.7708Z" fill="#860864"/>
<path fill-rule="evenodd" clip-rule="evenodd" d="M111.595 61.6958H121.67V51.6208H111.595V61.6958Z" fill="#860864"/>
<path fill-rule="evenodd" clip-rule="evenodd" d="M111.595 51.6209H121.67V41.5459H111.595V51.6209Z" fill="#00C37B"/>
<path fill-rule="evenodd" clip-rule="evenodd" d="M111.595 41.5459H121.67V31.4709H111.595V41.5459Z" fill="#95E616"/>
<path fill-rule="evenodd" clip-rule="evenodd" d="M111.595 31.471H121.67V21.396H111.595V31.471Z" fill="#95E616"/>
<path fill-rule="evenodd" clip-rule="evenodd" d="M111.595 21.3958H121.67V11.3208H111.595V21.3958Z" fill="#95E616"/>
<path fill-rule="evenodd" clip-rule="evenodd" d="M121.671 303.495H131.746V293.421H121.671V303.495Z" fill="#2B0A3D"/>
<path fill-rule="evenodd" clip-rule="evenodd" d="M121.671 293.421H131.746V283.346H121.671V293.421Z" fill="#15636B"/>
<path fill-rule="evenodd" clip-rule="evenodd" d="M121.671 283.346H131.746V273.271H121.671V283.346Z" fill="#15636B"/>
<path fill-rule="evenodd" clip-rule="evenodd" d="M121.671 273.271H131.746V263.196H121.671V273.271Z" fill="#15636B"/>
<path fill-rule="evenodd" clip-rule="evenodd" d="M121.671 263.196H131.746V253.121H121.671V263.196Z" fill="#15636B"/>
<path fill-rule="evenodd" clip-rule="evenodd" d="M121.671 253.12H131.746V243.046H121.671V253.12Z" fill="#0F999C"/>
<path fill-rule="evenodd" clip-rule="evenodd" d="M121.671 243.046H131.746V232.971H121.671V243.046Z" fill="#2B0A3D"/>
<path fill-rule="evenodd" clip-rule="evenodd" d="M121.671 232.971H131.746V222.896H121.671V232.971Z" fill="#0F999C"/>
<path fill-rule="evenodd" clip-rule="evenodd" d="M121.671 222.896H131.746V212.821H121.671V222.896Z" fill="#15636B"/>
<path fill-rule="evenodd" clip-rule="evenodd" d="M121.671 212.821H131.746V202.746H121.671V212.821Z" fill="#15636B"/>
<path fill-rule="evenodd" clip-rule="evenodd" d="M121.671 202.745H131.746V192.671H121.671V202.745Z" fill="#15636B"/>
<path fill-rule="evenodd" clip-rule="evenodd" d="M121.671 192.671H131.746V182.596H121.671V192.671Z" fill="#15636B"/>
<path fill-rule="evenodd" clip-rule="evenodd" d="M121.671 182.596H131.746V172.521H121.671V182.596Z" fill="#15636B"/>
<path fill-rule="evenodd" clip-rule="evenodd" d="M121.671 162.446H131.746V152.371H121.671V162.446Z" fill="#FF7E83"/>
<path fill-rule="evenodd" clip-rule="evenodd" d="M121.671 152.37H131.746V142.296H121.671V152.37Z" fill="#FF7E83"/>
<path fill-rule="evenodd" clip-rule="evenodd" d="M121.671 142.296H131.746V132.221H121.671V142.296Z" fill="#FF7E83"/>
<path fill-rule="evenodd" clip-rule="evenodd" d="M121.671 132.221H131.746V122.146H121.671V132.221Z" fill="#FF7E83"/>
<path fill-rule="evenodd" clip-rule="evenodd" d="M121.671 122.146H131.746V112.071H121.671V122.146Z" fill="#FF7E83"/>
<path fill-rule="evenodd" clip-rule="evenodd" d="M121.671 112.071H131.746V101.996H121.671V112.071Z" fill="#2B0A3D"/>
<path fill-rule="evenodd" clip-rule="evenodd" d="M121.671 101.996H131.746V91.9209H121.671V101.996Z" fill="#FF7E83"/>
<path fill-rule="evenodd" clip-rule="evenodd" d="M121.671 91.9209H131.746V81.8459H121.671V91.9209Z" fill="#FF7E83"/>
<path fill-rule="evenodd" clip-rule="evenodd" d="M121.671 81.846H131.746V71.771H121.671V81.846Z" fill="#00C37B"/>
<path fill-rule="evenodd" clip-rule="evenodd" d="M121.671 71.7708H131.746V61.6958H121.671V71.7708Z" fill="#860864"/>
<path fill-rule="evenodd" clip-rule="evenodd" d="M121.671 61.6958H131.746V51.6208H121.671V61.6958Z" fill="#860864"/>
<path fill-rule="evenodd" clip-rule="evenodd" d="M121.671 51.6209H131.746V41.5459H121.671V51.6209Z" fill="#00C37B"/>
<path fill-rule="evenodd" clip-rule="evenodd" d="M121.671 41.5459H131.746V31.4709H121.671V41.5459Z" fill="#95E616"/>
<path fill-rule="evenodd" clip-rule="evenodd" d="M121.671 31.471H131.746V21.396H121.671V31.471Z" fill="#95E616"/>
<path fill-rule="evenodd" clip-rule="evenodd" d="M131.746 303.495H141.821V293.421H131.746V303.495Z" fill="#2B0A3D"/>
<path fill-rule="evenodd" clip-rule="evenodd" d="M131.746 293.421H141.821V283.346H131.746V293.421Z" fill="#15636B"/>
<path fill-rule="evenodd" clip-rule="evenodd" d="M131.746 283.346H141.821V273.271H131.746V283.346Z" fill="#15636B"/>
<path fill-rule="evenodd" clip-rule="evenodd" d="M131.746 273.271H141.821V263.196H131.746V273.271Z" fill="#15636B"/>
<path fill-rule="evenodd" clip-rule="evenodd" d="M131.746 263.196H141.821V253.121H131.746V263.196Z" fill="#0F999C"/>
<path fill-rule="evenodd" clip-rule="evenodd" d="M131.746 222.896H141.821V212.821H131.746V222.896Z" fill="#15636B"/>
<path fill-rule="evenodd" clip-rule="evenodd" d="M131.746 212.821H141.821V202.746H131.746V212.821Z" fill="#15636B"/>
<path fill-rule="evenodd" clip-rule="evenodd" d="M131.746 202.745H141.821V192.671H131.746V202.745Z" fill="#15636B"/>
<path fill-rule="evenodd" clip-rule="evenodd" d="M131.746 192.671H141.821V182.596H131.746V192.671Z" fill="#15636B"/>
<path fill-rule="evenodd" clip-rule="evenodd" d="M131.746 182.596H141.821V172.521H131.746V182.596Z" fill="#0F999C"/>
<path fill-rule="evenodd" clip-rule="evenodd" d="M131.746 152.37H141.821V142.296H131.746V152.37Z" fill="#FF7E83"/>
<path fill-rule="evenodd" clip-rule="evenodd" d="M131.746 142.296H141.821V132.221H131.746V142.296Z" fill="#FF7E83"/>
<path fill-rule="evenodd" clip-rule="evenodd" d="M131.746 132.221H141.821V122.146H131.746V132.221Z" fill="#FF7E83"/>
<path fill-rule="evenodd" clip-rule="evenodd" d="M131.746 122.146H141.821V112.071H131.746V122.146Z" fill="#FF7E83"/>
<path fill-rule="evenodd" clip-rule="evenodd" d="M131.746 112.071H141.821V101.996H131.746V112.071Z" fill="#FF7E83"/>
<path fill-rule="evenodd" clip-rule="evenodd" d="M131.746 101.996H141.821V91.9209H131.746V101.996Z" fill="#FF7E83"/>
<path fill-rule="evenodd" clip-rule="evenodd" d="M131.746 91.9209H141.821V81.8459H131.746V91.9209Z" fill="#FF7E83"/>
<path fill-rule="evenodd" clip-rule="evenodd" d="M131.746 81.846H141.821V71.771H131.746V81.846Z" fill="#00C37B"/>
<path fill-rule="evenodd" clip-rule="evenodd" d="M131.746 71.7708H141.821V61.6958H131.746V71.7708Z" fill="#860864"/>
<path fill-rule="evenodd" clip-rule="evenodd" d="M131.746 61.6958H141.821V51.6208H131.746V61.6958Z" fill="#860864"/>
<path fill-rule="evenodd" clip-rule="evenodd" d="M131.746 51.6209H141.821V41.5459H131.746V51.6209Z" fill="#00C37B"/>
<path fill-rule="evenodd" clip-rule="evenodd" d="M131.746 41.5459H141.821V31.4709H131.746V41.5459Z" fill="#95E616"/>
<path fill-rule="evenodd" clip-rule="evenodd" d="M141.821 303.495H151.896V293.421H141.821V303.495Z" fill="#2B0A3D"/>
<path fill-rule="evenodd" clip-rule="evenodd" d="M141.821 293.421H151.896V283.346H141.821V293.421Z" fill="#15636B"/>
<path fill-rule="evenodd" clip-rule="evenodd" d="M141.821 283.346H151.896V273.271H141.821V283.346Z" fill="#0F999C"/>
<path fill-rule="evenodd" clip-rule="evenodd" d="M141.821 273.271H151.896V263.196H141.821V273.271Z" fill="#0F999C"/>
<path fill-rule="evenodd" clip-rule="evenodd" d="M141.821 222.896H151.896V212.821H141.821V222.896Z" fill="#0F999C"/>
<path fill-rule="evenodd" clip-rule="evenodd" d="M141.821 212.821H151.896V202.746H141.821V212.821Z" fill="#0F999C"/>
<path fill-rule="evenodd" clip-rule="evenodd" d="M141.821 202.745H151.896V192.671H141.821V202.745Z" fill="#15636B"/>
<path fill-rule="evenodd" clip-rule="evenodd" d="M141.821 192.671H151.896V182.596H141.821V192.671Z" fill="#15636B"/>
<path fill-rule="evenodd" clip-rule="evenodd" d="M141.821 182.596H151.896V172.521H141.821V182.596Z" fill="#0F999C"/>
<path fill-rule="evenodd" clip-rule="evenodd" d="M151.896 303.495H161.971V293.421H151.896V303.495Z" fill="#2B0A3D"/>
<path fill-rule="evenodd" clip-rule="evenodd" d="M151.896 293.421H161.971V283.346H151.896V293.421Z" fill="#860864"/>
<path fill-rule="evenodd" clip-rule="evenodd" d="M151.896 283.346H161.971V273.271H151.896V283.346Z" fill="#0F999C"/>
<path fill-rule="evenodd" clip-rule="evenodd" d="M151.896 212.821H161.971V202.746H151.896V212.821Z" fill="#0F999C"/>
<path fill-rule="evenodd" clip-rule="evenodd" d="M151.896 202.745H161.971V192.671H151.896V202.745Z" fill="#CB2980"/>
<path fill-rule="evenodd" clip-rule="evenodd" d="M151.896 192.671H161.971V182.596H151.896V192.671Z" fill="#CB2980"/>
<path fill-rule="evenodd" clip-rule="evenodd" d="M151.896 182.596H161.971V172.521H151.896V182.596Z" fill="#0F999C"/>
<path fill-rule="evenodd" clip-rule="evenodd" d="M161.97 303.495H172.045V293.421H161.97V303.495Z" fill="#2B0A3D"/>
<path fill-rule="evenodd" clip-rule="evenodd" d="M161.97 293.421H172.045V283.346H161.97V293.421Z" fill="#860864"/>
<path fill-rule="evenodd" clip-rule="evenodd" d="M161.97 212.821H172.045V202.746H161.97V212.821Z" fill="#0F999C"/>
<path fill-rule="evenodd" clip-rule="evenodd" d="M161.97 202.745H172.045V192.671H161.97V202.745Z" fill="#CB2980"/>
<path fill-rule="evenodd" clip-rule="evenodd" d="M161.97 192.671H172.045V182.596H161.97V192.671Z" fill="#CB2980"/>
<path fill-rule="evenodd" clip-rule="evenodd" d="M161.97 182.596H172.045V172.521H161.97V182.596Z" fill="#0F999C"/>
<path fill-rule="evenodd" clip-rule="evenodd" d="M172.046 303.495H182.121V293.421H172.046V303.495Z" fill="#860864"/>
<path fill-rule="evenodd" clip-rule="evenodd" d="M172.046 202.745H182.121V192.671H172.046V202.745Z" fill="#CB2980"/>
<path fill-rule="evenodd" clip-rule="evenodd" d="M172.046 192.671H182.121V182.596H172.046V192.671Z" fill="#FF7E83"/>
<path fill-rule="evenodd" clip-rule="evenodd" d="M182.121 202.745H192.196V192.671H182.121V202.745Z" fill="#CB2980"/>
<path fill-rule="evenodd" clip-rule="evenodd" d="M182.121 192.671H192.196V182.596H182.121V192.671Z" fill="#FF7E83"/>
<path fill-rule="evenodd" clip-rule="evenodd" d="M192.196 202.745H202.271V192.671H192.196V202.745Z" fill="#CB2980"/>
<path fill-rule="evenodd" clip-rule="evenodd" d="M192.196 192.671H202.271V182.596H192.196V192.671Z" fill="#FF7E83"/>
<path fill-rule="evenodd" clip-rule="evenodd" d="M202.271 202.745H212.346V192.671H202.271V202.745Z" fill="#CB2980"/>
<path fill-rule="evenodd" clip-rule="evenodd" d="M202.271 192.671H212.346V182.596H202.271V192.671Z" fill="#FF7E83"/>
<path fill-rule="evenodd" clip-rule="evenodd" d="M202.271 182.596H212.346V172.521H202.271V182.596Z" fill="#FF7E83"/>
<path fill-rule="evenodd" clip-rule="evenodd" d="M212.345 202.745H222.42V192.671H212.345V202.745Z" fill="#CB2980"/>
<path fill-rule="evenodd" clip-rule="evenodd" d="M212.345 192.671H222.42V182.596H212.345V192.671Z" fill="#CB2980"/>
<path fill-rule="evenodd" clip-rule="evenodd" d="M212.345 182.596H222.42V172.521H212.345V182.596Z" fill="#FF7E83"/>
<path fill-rule="evenodd" clip-rule="evenodd" d="M222.421 202.745H232.496V192.671H222.421V202.745Z" fill="#FF7E83"/>
<path fill-rule="evenodd" clip-rule="evenodd" d="M222.421 192.671H232.496V182.596H222.421V192.671Z" fill="#FF7E83"/>
<path fill-rule="evenodd" clip-rule="evenodd" d="M222.421 182.596H232.496V172.521H222.421V182.596Z" fill="#FF7E83"/>
<path fill-rule="evenodd" clip-rule="evenodd" d="M232.496 212.821H242.571V202.746H232.496V212.821Z" fill="#767676"/>
<path fill-rule="evenodd" clip-rule="evenodd" d="M232.496 202.745H242.571V192.671H232.496V202.745Z" fill="#767676"/>
<path fill-rule="evenodd" clip-rule="evenodd" d="M232.496 192.671H242.571V182.596H232.496V192.671Z" fill="#767676"/>
<path fill-rule="evenodd" clip-rule="evenodd" d="M232.496 182.596H242.571V172.521H232.496V182.596Z" fill="#767676"/>
<path fill-rule="evenodd" clip-rule="evenodd" d="M242.571 202.745H252.646V192.671H242.571V202.745Z" fill="#B2B2B2"/>
<path fill-rule="evenodd" clip-rule="evenodd" d="M242.571 192.671H252.646V182.596H242.571V192.671Z" fill="#B2B2B2"/>
<path fill-rule="evenodd" clip-rule="evenodd" d="M242.571 182.596H252.646V172.521H242.571V182.596Z" fill="#B2B2B2"/>
<path fill-rule="evenodd" clip-rule="evenodd" d="M252.646 202.745H262.721V192.671H252.646V202.745Z" fill="#CFCFCF"/>
<path fill-rule="evenodd" clip-rule="evenodd" d="M252.646 192.671H262.721V182.596H252.646V192.671Z" fill="#B2B2B2"/>
<path fill-rule="evenodd" clip-rule="evenodd" d="M252.646 182.596H262.721V172.521H252.646V182.596Z" fill="#B2B2B2"/>
<path fill-rule="evenodd" clip-rule="evenodd" d="M262.72 202.745H272.795V192.671H262.72V202.745Z" fill="#CFCFCF"/>
<path fill-rule="evenodd" clip-rule="evenodd" d="M262.72 192.671H272.795V182.596H262.72V192.671Z" fill="#B2B2B2"/>
<path fill-rule="evenodd" clip-rule="evenodd" d="M272.796 212.821H282.871V202.746H272.796V212.821Z" fill="#CFCFCF"/>
<path fill-rule="evenodd" clip-rule="evenodd" d="M272.796 202.745H282.871V192.671H272.796V202.745Z" fill="#CFCFCF"/>
<path fill-rule="evenodd" clip-rule="evenodd" d="M272.796 192.671H282.871V182.596H272.796V192.671Z" fill="#B2B2B2"/>
<path fill-rule="evenodd" clip-rule="evenodd" d="M282.871 212.821H292.946V202.746H282.871V212.821Z" fill="#CFCFCF"/>
<path fill-rule="evenodd" clip-rule="evenodd" d="M282.871 202.745H292.946V192.671H282.871V202.745Z" fill="#B2B2B2"/>
<path fill-rule="evenodd" clip-rule="evenodd" d="M282.871 192.671H292.946V182.596H282.871V192.671Z" fill="#B2B2B2"/>
<path fill-rule="evenodd" clip-rule="evenodd" d="M292.946 212.821H303.021V202.746H292.946V212.821Z" fill="#CFCFCF"/>
<path fill-rule="evenodd" clip-rule="evenodd" d="M292.946 202.745H303.021V192.671H292.946V202.745Z" fill="#B2B2B2"/>
<path fill-rule="evenodd" clip-rule="evenodd" d="M303.021 212.821H313.096V202.746H303.021V212.821Z" fill="#CFCFCF"/>
<path fill-rule="evenodd" clip-rule="evenodd" d="M303.021 202.745H313.096V192.671H303.021V202.745Z" fill="#B2B2B2"/>
<path fill-rule="evenodd" clip-rule="evenodd" d="M313.095 212.821H323.17V202.746H313.095V212.821Z" fill="#CFCFCF"/>
<path fill-rule="evenodd" clip-rule="evenodd" d="M313.095 202.745H323.17V192.671H313.095V202.745Z" fill="#B2B2B2"/>
<path fill-rule="evenodd" clip-rule="evenodd" d="M323.171 212.821H333.246V202.746H323.171V212.821Z" fill="#CFCFCF"/>
<path fill-rule="evenodd" clip-rule="evenodd" d="M323.171 202.745H333.246V192.671H323.171V202.745Z" fill="#B2B2B2"/>
<path fill-rule="evenodd" clip-rule="evenodd" d="M333.246 212.821H343.321V202.746H333.246V212.821Z" fill="#CFCFCF"/>
<path fill-rule="evenodd" clip-rule="evenodd" d="M333.246 202.745H343.321V192.671H333.246V202.745Z" fill="#B2B2B2"/>
<path fill-rule="evenodd" clip-rule="evenodd" d="M333.246 192.671H343.321V182.596H333.246V192.671Z" fill="#B2B2B2"/>
<path fill-rule="evenodd" clip-rule="evenodd" d="M343.321 212.821H353.396V202.746H343.321V212.821Z" fill="#CFCFCF"/>
<path fill-rule="evenodd" clip-rule="evenodd" d="M343.321 202.745H353.396V192.671H343.321V202.745Z" fill="#CFCFCF"/>
<path fill-rule="evenodd" clip-rule="evenodd" d="M343.321 192.671H353.396V182.596H343.321V192.671Z" fill="#B2B2B2"/>
<path fill-rule="evenodd" clip-rule="evenodd" d="M353.396 202.745H363.471V192.671H353.396V202.745Z" fill="#CFCFCF"/>
<path fill-rule="evenodd" clip-rule="evenodd" d="M353.396 192.671H363.471V182.596H353.396V192.671Z" fill="#B2B2B2"/>
<path fill-rule="evenodd" clip-rule="evenodd" d="M353.396 142.296H363.471V132.221H353.396V142.296Z" fill="#CB2980"/>
<path fill-rule="evenodd" clip-rule="evenodd" d="M363.47 202.745H373.545V192.671H363.47V202.745Z" fill="#CFCFCF"/>
<path fill-rule="evenodd" clip-rule="evenodd" d="M363.47 192.671H373.545V182.596H363.47V192.671Z" fill="#CFCFCF"/>
<path fill-rule="evenodd" clip-rule="evenodd" d="M373.546 192.671H383.621V182.596H373.546V192.671Z" fill="#CFCFCF"/>
</svg>
