<svg width="485" height="293" viewBox="0 0 485 293" fill="none" xmlns="http://www.w3.org/2000/svg">
<path fill-rule="evenodd" clip-rule="evenodd" d="M0.403015 70.846H10.478V60.771H0.403015V70.846Z" fill="#860864"/>
<path fill-rule="evenodd" clip-rule="evenodd" d="M10.478 292.495H20.553V282.421H10.478V292.495Z" fill="#860864"/>
<path fill-rule="evenodd" clip-rule="evenodd" d="M10.478 90.9959H20.553V80.9209H10.478V90.9959Z" fill="#860864"/>
<path fill-rule="evenodd" clip-rule="evenodd" d="M10.478 80.9209H20.553V70.8459H10.478V80.9209Z" fill="#860864"/>
<path fill-rule="evenodd" clip-rule="evenodd" d="M10.478 70.846H20.553V60.771H10.478V70.846Z" fill="#860864"/>
<path fill-rule="evenodd" clip-rule="evenodd" d="M20.553 292.495H30.628V282.421H20.553V292.495Z" fill="#2B0A3D"/>
<path fill-rule="evenodd" clip-rule="evenodd" d="M20.553 282.421H30.628V272.346H20.553V282.421Z" fill="#860864"/>
<path fill-rule="evenodd" clip-rule="evenodd" d="M20.553 80.9209H30.628V70.8459H20.553V80.9209Z" fill="#860864"/>
<path fill-rule="evenodd" clip-rule="evenodd" d="M20.553 70.846H30.628V60.771H20.553V70.846Z" fill="#860864"/>
<path fill-rule="evenodd" clip-rule="evenodd" d="M20.553 60.771H30.628V50.696H20.553V60.771Z" fill="#95E616"/>
<path fill-rule="evenodd" clip-rule="evenodd" d="M20.553 50.6961H30.628V40.6211H20.553V50.6961Z" fill="#95E616"/>
<path fill-rule="evenodd" clip-rule="evenodd" d="M20.553 40.6209H30.628V30.5459H20.553V40.6209Z" fill="#95E616"/>
<path fill-rule="evenodd" clip-rule="evenodd" d="M20.553 30.5459H30.628V20.4709H20.553V30.5459Z" fill="#C8FF16"/>
<path fill-rule="evenodd" clip-rule="evenodd" d="M30.628 292.495H40.703V282.421H30.628V292.495Z" fill="#2B0A3D"/>
<path fill-rule="evenodd" clip-rule="evenodd" d="M30.628 282.421H40.703V272.346H30.628V282.421Z" fill="#860864"/>
<path fill-rule="evenodd" clip-rule="evenodd" d="M30.628 272.346H40.703V262.271H30.628V272.346Z" fill="#15636B"/>
<path fill-rule="evenodd" clip-rule="evenodd" d="M30.628 262.271H40.703V252.196H30.628V262.271Z" fill="#0F999C"/>
<path fill-rule="evenodd" clip-rule="evenodd" d="M30.628 242.12H40.703V232.046H30.628V242.12Z" fill="#CB2980"/>
<path fill-rule="evenodd" clip-rule="evenodd" d="M30.628 232.046H40.703V221.971H30.628V232.046Z" fill="#CB2980"/>
<path fill-rule="evenodd" clip-rule="evenodd" d="M30.628 221.971H40.703V211.896H30.628V221.971Z" fill="#FF7E83"/>
<path fill-rule="evenodd" clip-rule="evenodd" d="M30.628 211.896H40.703V201.821H30.628V211.896Z" fill="#FF7E83"/>
<path fill-rule="evenodd" clip-rule="evenodd" d="M30.628 201.821H40.703V191.746H30.628V201.821Z" fill="#FF7E83"/>
<path fill-rule="evenodd" clip-rule="evenodd" d="M30.628 80.9209H40.703V70.8459H30.628V80.9209Z" fill="#95E616"/>
<path fill-rule="evenodd" clip-rule="evenodd" d="M30.628 70.846H40.703V60.771H30.628V70.846Z" fill="#860864"/>
<path fill-rule="evenodd" clip-rule="evenodd" d="M30.628 60.771H40.703V50.696H30.628V60.771Z" fill="#860864"/>
<path fill-rule="evenodd" clip-rule="evenodd" d="M30.628 50.6961H40.703V40.6211H30.628V50.6961Z" fill="#95E616"/>
<path fill-rule="evenodd" clip-rule="evenodd" d="M30.628 40.6209H40.703V30.5459H30.628V40.6209Z" fill="#C8FF16"/>
<path fill-rule="evenodd" clip-rule="evenodd" d="M30.628 30.5459H40.703V20.4709H30.628V30.5459Z" fill="#C8FF16"/>
<path fill-rule="evenodd" clip-rule="evenodd" d="M30.628 20.471H40.703V10.396H30.628V20.471Z" fill="#C8FF16"/>
<path fill-rule="evenodd" clip-rule="evenodd" d="M40.703 292.495H50.778V282.421H40.703V292.495Z" fill="#2B0A3D"/>
<path fill-rule="evenodd" clip-rule="evenodd" d="M40.703 282.421H50.778V272.346H40.703V282.421Z" fill="#15636B"/>
<path fill-rule="evenodd" clip-rule="evenodd" d="M40.703 272.346H50.778V262.271H40.703V272.346Z" fill="#15636B"/>
<path fill-rule="evenodd" clip-rule="evenodd" d="M40.703 262.271H50.778V252.196H40.703V262.271Z" fill="#15636B"/>
<path fill-rule="evenodd" clip-rule="evenodd" d="M40.703 252.196H50.778V242.121H40.703V252.196Z" fill="#CB2980"/>
<path fill-rule="evenodd" clip-rule="evenodd" d="M40.703 242.12H50.778V232.046H40.703V242.12Z" fill="#CB2980"/>
<path fill-rule="evenodd" clip-rule="evenodd" d="M40.703 232.046H50.778V221.971H40.703V232.046Z" fill="#FF7E83"/>
<path fill-rule="evenodd" clip-rule="evenodd" d="M40.703 221.971H50.778V211.896H40.703V221.971Z" fill="#FF7E83"/>
<path fill-rule="evenodd" clip-rule="evenodd" d="M40.703 211.896H50.778V201.821H40.703V211.896Z" fill="#FF7E83"/>
<path fill-rule="evenodd" clip-rule="evenodd" d="M40.703 201.821H50.778V191.746H40.703V201.821Z" fill="#15636B"/>
<path fill-rule="evenodd" clip-rule="evenodd" d="M40.703 191.745H50.778V181.671H40.703V191.745Z" fill="#15636B"/>
<path fill-rule="evenodd" clip-rule="evenodd" d="M40.703 181.671H50.778V171.596H40.703V181.671Z" fill="#0F999C"/>
<path fill-rule="evenodd" clip-rule="evenodd" d="M40.703 121.221H50.778V111.146H40.703V121.221Z" fill="#860864"/>
<path fill-rule="evenodd" clip-rule="evenodd" d="M40.703 111.146H50.778V101.071H40.703V111.146Z" fill="#CB2980"/>
<path fill-rule="evenodd" clip-rule="evenodd" d="M40.703 101.071H50.778V90.9961H40.703V101.071Z" fill="#FF7E83"/>
<path fill-rule="evenodd" clip-rule="evenodd" d="M40.703 90.9959H50.778V80.9209H40.703V90.9959Z" fill="#00C37B"/>
<path fill-rule="evenodd" clip-rule="evenodd" d="M40.703 80.9209H50.778V70.8459H40.703V80.9209Z" fill="#95E616"/>
<path fill-rule="evenodd" clip-rule="evenodd" d="M40.703 70.846H50.778V60.771H40.703V70.846Z" fill="#860864"/>
<path fill-rule="evenodd" clip-rule="evenodd" d="M40.703 60.771H50.778V50.696H40.703V60.771Z" fill="#860864"/>
<path fill-rule="evenodd" clip-rule="evenodd" d="M40.703 50.6961H50.778V40.6211H40.703V50.6961Z" fill="#95E616"/>
<path fill-rule="evenodd" clip-rule="evenodd" d="M40.703 40.6209H50.778V30.5459H40.703V40.6209Z" fill="#95E616"/>
<path fill-rule="evenodd" clip-rule="evenodd" d="M40.703 30.5459H50.778V20.4709H40.703V30.5459Z" fill="#95E616"/>
<path fill-rule="evenodd" clip-rule="evenodd" d="M40.703 20.471H50.778V10.396H40.703V20.471Z" fill="#C8FF16"/>
<path fill-rule="evenodd" clip-rule="evenodd" d="M50.778 292.495H60.853V282.421H50.778V292.495Z" fill="#2B0A3D"/>
<path fill-rule="evenodd" clip-rule="evenodd" d="M50.778 282.421H60.853V272.346H50.778V282.421Z" fill="#15636B"/>
<path fill-rule="evenodd" clip-rule="evenodd" d="M50.778 272.346H60.853V262.271H50.778V272.346Z" fill="#15636B"/>
<path fill-rule="evenodd" clip-rule="evenodd" d="M50.778 262.271H60.853V252.196H50.778V262.271Z" fill="#CB2980"/>
<path fill-rule="evenodd" clip-rule="evenodd" d="M50.778 252.196H60.853V242.121H50.778V252.196Z" fill="#CB2980"/>
<path fill-rule="evenodd" clip-rule="evenodd" d="M50.778 242.12H60.853V232.046H50.778V242.12Z" fill="#FF7E83"/>
<path fill-rule="evenodd" clip-rule="evenodd" d="M50.778 232.046H60.853V221.971H50.778V232.046Z" fill="#FF7E83"/>
<path fill-rule="evenodd" clip-rule="evenodd" d="M50.778 221.971H60.853V211.896H50.778V221.971Z" fill="#0F999C"/>
<path fill-rule="evenodd" clip-rule="evenodd" d="M50.778 211.896H60.853V201.821H50.778V211.896Z" fill="#15636B"/>
<path fill-rule="evenodd" clip-rule="evenodd" d="M50.778 201.821H60.853V191.746H50.778V201.821Z" fill="#15636B"/>
<path fill-rule="evenodd" clip-rule="evenodd" d="M50.778 191.745H60.853V181.671H50.778V191.745Z" fill="#15636B"/>
<path fill-rule="evenodd" clip-rule="evenodd" d="M50.778 181.671H60.853V171.596H50.778V181.671Z" fill="#15636B"/>
<path fill-rule="evenodd" clip-rule="evenodd" d="M50.778 171.596H60.853V161.521H50.778V171.596Z" fill="#15636B"/>
<path fill-rule="evenodd" clip-rule="evenodd" d="M50.778 141.37H60.853V131.296H50.778V141.37Z" fill="#CB2980"/>
<path fill-rule="evenodd" clip-rule="evenodd" d="M50.778 131.296H60.853V121.221H50.778V131.296Z" fill="#CB2980"/>
<path fill-rule="evenodd" clip-rule="evenodd" d="M50.778 121.221H60.853V111.146H50.778V121.221Z" fill="#CB2980"/>
<path fill-rule="evenodd" clip-rule="evenodd" d="M50.778 111.146H60.853V101.071H50.778V111.146Z" fill="#CB2980"/>
<path fill-rule="evenodd" clip-rule="evenodd" d="M50.778 101.071H60.853V90.9961H50.778V101.071Z" fill="#00C37B"/>
<path fill-rule="evenodd" clip-rule="evenodd" d="M50.778 90.9959H60.853V80.9209H50.778V90.9959Z" fill="#00C37B"/>
<path fill-rule="evenodd" clip-rule="evenodd" d="M50.778 80.9209H60.853V70.8459H50.778V80.9209Z" fill="#00C37B"/>
<path fill-rule="evenodd" clip-rule="evenodd" d="M50.778 70.846H60.853V60.771H50.778V70.846Z" fill="#860864"/>
<path fill-rule="evenodd" clip-rule="evenodd" d="M50.778 60.771H60.853V50.696H50.778V60.771Z" fill="#860864"/>
<path fill-rule="evenodd" clip-rule="evenodd" d="M50.778 50.6961H60.853V40.6211H50.778V50.6961Z" fill="#860864"/>
<path fill-rule="evenodd" clip-rule="evenodd" d="M50.778 40.6209H60.853V30.5459H50.778V40.6209Z" fill="#95E616"/>
<path fill-rule="evenodd" clip-rule="evenodd" d="M50.778 30.5459H60.853V20.4709H50.778V30.5459Z" fill="#C8FF16"/>
<path fill-rule="evenodd" clip-rule="evenodd" d="M60.853 262.271H70.928V252.196H60.853V262.271Z" fill="#FF7E83"/>
<path fill-rule="evenodd" clip-rule="evenodd" d="M60.853 252.196H70.928V242.121H60.853V252.196Z" fill="#FF7E83"/>
<path fill-rule="evenodd" clip-rule="evenodd" d="M60.853 242.12H70.928V232.046H60.853V242.12Z" fill="#FF7E83"/>
<path fill-rule="evenodd" clip-rule="evenodd" d="M60.853 232.046H70.928V221.971H60.853V232.046Z" fill="#2B0A3D"/>
<path fill-rule="evenodd" clip-rule="evenodd" d="M60.853 221.971H70.928V211.896H60.853V221.971Z" fill="#15636B"/>
<path fill-rule="evenodd" clip-rule="evenodd" d="M60.853 211.896H70.928V201.821H60.853V211.896Z" fill="#15636B"/>
<path fill-rule="evenodd" clip-rule="evenodd" d="M60.853 201.821H70.928V191.746H60.853V201.821Z" fill="#15636B"/>
<path fill-rule="evenodd" clip-rule="evenodd" d="M60.853 191.745H70.928V181.671H60.853V191.745Z" fill="#15636B"/>
<path fill-rule="evenodd" clip-rule="evenodd" d="M60.853 181.671H70.928V171.596H60.853V181.671Z" fill="#15636B"/>
<path fill-rule="evenodd" clip-rule="evenodd" d="M60.853 171.596H70.928V161.521H60.853V171.596Z" fill="#15636B"/>
<path fill-rule="evenodd" clip-rule="evenodd" d="M60.853 161.521H70.928V151.446H60.853V161.521Z" fill="#CB2980"/>
<path fill-rule="evenodd" clip-rule="evenodd" d="M60.853 151.446H70.928V141.371H60.853V151.446Z" fill="#CB2980"/>
<path fill-rule="evenodd" clip-rule="evenodd" d="M60.853 141.37H70.928V131.296H60.853V141.37Z" fill="#FF7E83"/>
<path fill-rule="evenodd" clip-rule="evenodd" d="M60.853 131.296H70.928V121.221H60.853V131.296Z" fill="#FF7E83"/>
<path fill-rule="evenodd" clip-rule="evenodd" d="M60.853 121.221H70.928V111.146H60.853V121.221Z" fill="#FF7E83"/>
<path fill-rule="evenodd" clip-rule="evenodd" d="M60.853 111.146H70.928V101.071H60.853V111.146Z" fill="#FF7E83"/>
<path fill-rule="evenodd" clip-rule="evenodd" d="M60.853 101.071H70.928V90.9961H60.853V101.071Z" fill="#FF7E83"/>
<path fill-rule="evenodd" clip-rule="evenodd" d="M60.853 90.9959H70.928V80.9209H60.853V90.9959Z" fill="#FF7E83"/>
<path fill-rule="evenodd" clip-rule="evenodd" d="M60.853 80.9209H70.928V70.8459H60.853V80.9209Z" fill="#00C37B"/>
<path fill-rule="evenodd" clip-rule="evenodd" d="M60.853 70.846H70.928V60.771H60.853V70.846Z" fill="#860864"/>
<path fill-rule="evenodd" clip-rule="evenodd" d="M60.853 60.771H70.928V50.696H60.853V60.771Z" fill="#860864"/>
<path fill-rule="evenodd" clip-rule="evenodd" d="M60.853 50.6961H70.928V40.6211H60.853V50.6961Z" fill="#860864"/>
<path fill-rule="evenodd" clip-rule="evenodd" d="M60.853 40.6209H70.928V30.5459H60.853V40.6209Z" fill="#95E616"/>
<path fill-rule="evenodd" clip-rule="evenodd" d="M60.853 30.5459H70.928V20.4709H60.853V30.5459Z" fill="#C8FF16"/>
<path fill-rule="evenodd" clip-rule="evenodd" d="M60.853 20.471H70.928V10.396H60.853V20.471Z" fill="#C8FF16"/>
<path fill-rule="evenodd" clip-rule="evenodd" d="M70.928 252.196H81.003V242.121H70.928V252.196Z" fill="#FF7E83"/>
<path fill-rule="evenodd" clip-rule="evenodd" d="M70.928 242.12H81.003V232.046H70.928V242.12Z" fill="#FF7E83"/>
<path fill-rule="evenodd" clip-rule="evenodd" d="M70.928 232.046H81.003V221.971H70.928V232.046Z" fill="#2B0A3D"/>
<path fill-rule="evenodd" clip-rule="evenodd" d="M70.928 221.971H81.003V211.896H70.928V221.971Z" fill="#15636B"/>
<path fill-rule="evenodd" clip-rule="evenodd" d="M70.928 211.896H81.003V201.821H70.928V211.896Z" fill="#15636B"/>
<path fill-rule="evenodd" clip-rule="evenodd" d="M70.928 201.821H81.003V191.746H70.928V201.821Z" fill="#15636B"/>
<path fill-rule="evenodd" clip-rule="evenodd" d="M70.928 191.745H81.003V181.671H70.928V191.745Z" fill="#15636B"/>
<path fill-rule="evenodd" clip-rule="evenodd" d="M70.928 181.671H81.003V171.596H70.928V181.671Z" fill="#0F999C"/>
<path fill-rule="evenodd" clip-rule="evenodd" d="M70.928 171.596H81.003V161.521H70.928V171.596Z" fill="#0F999C"/>
<path fill-rule="evenodd" clip-rule="evenodd" d="M70.928 161.521H81.003V151.446H70.928V161.521Z" fill="#CB2980"/>
<path fill-rule="evenodd" clip-rule="evenodd" d="M70.928 151.446H81.003V141.371H70.928V151.446Z" fill="#FF7E83"/>
<path fill-rule="evenodd" clip-rule="evenodd" d="M70.928 141.37H81.003V131.296H70.928V141.37Z" fill="#FF7E83"/>
<path fill-rule="evenodd" clip-rule="evenodd" d="M70.928 131.296H81.003V121.221H70.928V131.296Z" fill="#2B0A3D"/>
<path fill-rule="evenodd" clip-rule="evenodd" d="M70.928 121.221H81.003V111.146H70.928V121.221Z" fill="#2B0A3D"/>
<path fill-rule="evenodd" clip-rule="evenodd" d="M70.928 111.146H81.003V101.071H70.928V111.146Z" fill="#FF7E83"/>
<path fill-rule="evenodd" clip-rule="evenodd" d="M70.928 101.071H81.003V90.9961H70.928V101.071Z" fill="#2B0A3D"/>
<path fill-rule="evenodd" clip-rule="evenodd" d="M70.928 90.9959H81.003V80.9209H70.928V90.9959Z" fill="white"/>
<path fill-rule="evenodd" clip-rule="evenodd" d="M70.928 80.9209H81.003V70.8459H70.928V80.9209Z" fill="#FF7E83"/>
<path fill-rule="evenodd" clip-rule="evenodd" d="M70.928 70.846H81.003V60.771H70.928V70.846Z" fill="#00C37B"/>
<path fill-rule="evenodd" clip-rule="evenodd" d="M70.928 60.771H81.003V50.696H70.928V60.771Z" fill="#860864"/>
<path fill-rule="evenodd" clip-rule="evenodd" d="M70.928 50.6961H81.003V40.6211H70.928V50.6961Z" fill="#860864"/>
<path fill-rule="evenodd" clip-rule="evenodd" d="M70.928 40.6209H81.003V30.5459H70.928V40.6209Z" fill="#95E616"/>
<path fill-rule="evenodd" clip-rule="evenodd" d="M70.928 30.5459H81.003V20.4709H70.928V30.5459Z" fill="#95E616"/>
<path fill-rule="evenodd" clip-rule="evenodd" d="M70.928 20.471H81.003V10.396H70.928V20.471Z" fill="#C8FF16"/>
<path fill-rule="evenodd" clip-rule="evenodd" d="M81.003 252.196H91.078V242.121H81.003V252.196Z" fill="#15636B"/>
<path fill-rule="evenodd" clip-rule="evenodd" d="M81.003 242.12H91.078V232.046H81.003V242.12Z" fill="#0F999C"/>
<path fill-rule="evenodd" clip-rule="evenodd" d="M81.003 232.046H91.078V221.971H81.003V232.046Z" fill="#2B0A3D"/>
<path fill-rule="evenodd" clip-rule="evenodd" d="M81.003 221.971H91.078V211.896H81.003V221.971Z" fill="#0F999C"/>
<path fill-rule="evenodd" clip-rule="evenodd" d="M81.003 211.896H91.078V201.821H81.003V211.896Z" fill="#15636B"/>
<path fill-rule="evenodd" clip-rule="evenodd" d="M81.003 201.821H91.078V191.746H81.003V201.821Z" fill="#15636B"/>
<path fill-rule="evenodd" clip-rule="evenodd" d="M81.003 191.745H91.078V181.671H81.003V191.745Z" fill="#15636B"/>
<path fill-rule="evenodd" clip-rule="evenodd" d="M81.003 181.671H91.078V171.596H81.003V181.671Z" fill="#0F999C"/>
<path fill-rule="evenodd" clip-rule="evenodd" d="M81.003 171.596H91.078V161.521H81.003V171.596Z" fill="#FF7E83"/>
<path fill-rule="evenodd" clip-rule="evenodd" d="M81.003 161.521H91.078V151.446H81.003V161.521Z" fill="#CB2980"/>
<path fill-rule="evenodd" clip-rule="evenodd" d="M81.003 151.446H91.078V141.371H81.003V151.446Z" fill="#FF7E83"/>
<path fill-rule="evenodd" clip-rule="evenodd" d="M81.003 141.37H91.078V131.296H81.003V141.37Z" fill="#CB2980"/>
<path fill-rule="evenodd" clip-rule="evenodd" d="M81.003 131.296H91.078V121.221H81.003V131.296Z" fill="#2B0A3D"/>
<path fill-rule="evenodd" clip-rule="evenodd" d="M81.003 121.221H91.078V111.146H81.003V121.221Z" fill="#2B0A3D"/>
<path fill-rule="evenodd" clip-rule="evenodd" d="M81.003 111.146H91.078V101.071H81.003V111.146Z" fill="#FF7E83"/>
<path fill-rule="evenodd" clip-rule="evenodd" d="M81.003 101.071H91.078V90.9961H81.003V101.071Z" fill="#2B0A3D"/>
<path fill-rule="evenodd" clip-rule="evenodd" d="M81.003 90.9959H91.078V80.9209H81.003V90.9959Z" fill="#2B0A3D"/>
<path fill-rule="evenodd" clip-rule="evenodd" d="M81.003 80.9209H91.078V70.8459H81.003V80.9209Z" fill="#FF7E83"/>
<path fill-rule="evenodd" clip-rule="evenodd" d="M81.003 70.846H91.078V60.771H81.003V70.846Z" fill="#00C37B"/>
<path fill-rule="evenodd" clip-rule="evenodd" d="M81.003 60.771H91.078V50.696H81.003V60.771Z" fill="#860864"/>
<path fill-rule="evenodd" clip-rule="evenodd" d="M81.003 50.6961H91.078V40.6211H81.003V50.6961Z" fill="#860864"/>
<path fill-rule="evenodd" clip-rule="evenodd" d="M81.003 40.6209H91.078V30.5459H81.003V40.6209Z" fill="#95E616"/>
<path fill-rule="evenodd" clip-rule="evenodd" d="M81.003 30.5459H91.078V20.4709H81.003V30.5459Z" fill="#95E616"/>
<path fill-rule="evenodd" clip-rule="evenodd" d="M81.003 20.471H91.078V10.396H81.003V20.471Z" fill="#C8FF16"/>
<path fill-rule="evenodd" clip-rule="evenodd" d="M91.078 252.196H101.153V242.121H91.078V252.196Z" fill="#15636B"/>
<path fill-rule="evenodd" clip-rule="evenodd" d="M91.078 242.12H101.153V232.046H91.078V242.12Z" fill="#2B0A3D"/>
<path fill-rule="evenodd" clip-rule="evenodd" d="M91.078 232.046H101.153V221.971H91.078V232.046Z" fill="#2B0A3D"/>
<path fill-rule="evenodd" clip-rule="evenodd" d="M91.078 221.971H101.153V211.896H91.078V221.971Z" fill="#2B0A3D"/>
<path fill-rule="evenodd" clip-rule="evenodd" d="M91.078 211.896H101.153V201.821H91.078V211.896Z" fill="#15636B"/>
<path fill-rule="evenodd" clip-rule="evenodd" d="M91.078 201.821H101.153V191.746H91.078V201.821Z" fill="#15636B"/>
<path fill-rule="evenodd" clip-rule="evenodd" d="M91.078 191.745H101.153V181.671H91.078V191.745Z" fill="#15636B"/>
<path fill-rule="evenodd" clip-rule="evenodd" d="M91.078 181.671H101.153V171.596H91.078V181.671Z" fill="#0F999C"/>
<path fill-rule="evenodd" clip-rule="evenodd" d="M91.078 171.596H101.153V161.521H91.078V171.596Z" fill="#FF7E83"/>
<path fill-rule="evenodd" clip-rule="evenodd" d="M91.078 161.521H101.153V151.446H91.078V161.521Z" fill="#FF7E83"/>
<path fill-rule="evenodd" clip-rule="evenodd" d="M91.078 151.446H101.153V141.371H91.078V151.446Z" fill="#FF7E83"/>
<path fill-rule="evenodd" clip-rule="evenodd" d="M91.078 141.37H101.153V131.296H91.078V141.37Z" fill="#CB2980"/>
<path fill-rule="evenodd" clip-rule="evenodd" d="M91.078 131.296H101.153V121.221H91.078V131.296Z" fill="#2B0A3D"/>
<path fill-rule="evenodd" clip-rule="evenodd" d="M91.078 121.221H101.153V111.146H91.078V121.221Z" fill="#2B0A3D"/>
<path fill-rule="evenodd" clip-rule="evenodd" d="M91.078 111.146H101.153V101.071H91.078V111.146Z" fill="#FF7E83"/>
<path fill-rule="evenodd" clip-rule="evenodd" d="M91.078 101.071H101.153V90.9961H91.078V101.071Z" fill="#FF7E83"/>
<path fill-rule="evenodd" clip-rule="evenodd" d="M91.078 90.9959H101.153V80.9209H91.078V90.9959Z" fill="#FF7E83"/>
<path fill-rule="evenodd" clip-rule="evenodd" d="M91.078 80.9209H101.153V70.8459H91.078V80.9209Z" fill="#FF7E83"/>
<path fill-rule="evenodd" clip-rule="evenodd" d="M91.078 70.846H101.153V60.771H91.078V70.846Z" fill="#00C37B"/>
<path fill-rule="evenodd" clip-rule="evenodd" d="M91.078 60.771H101.153V50.696H91.078V60.771Z" fill="#860864"/>
<path fill-rule="evenodd" clip-rule="evenodd" d="M91.078 50.6961H101.153V40.6211H91.078V50.6961Z" fill="#860864"/>
<path fill-rule="evenodd" clip-rule="evenodd" d="M91.078 40.6209H101.153V30.5459H91.078V40.6209Z" fill="#95E616"/>
<path fill-rule="evenodd" clip-rule="evenodd" d="M91.078 30.5459H101.153V20.4709H91.078V30.5459Z" fill="#95E616"/>
<path fill-rule="evenodd" clip-rule="evenodd" d="M101.153 252.196H111.228V242.121H101.153V252.196Z" fill="#15636B"/>
<path fill-rule="evenodd" clip-rule="evenodd" d="M101.153 242.12H111.228V232.046H101.153V242.12Z" fill="#15636B"/>
<path fill-rule="evenodd" clip-rule="evenodd" d="M101.153 232.046H111.228V221.971H101.153V232.046Z" fill="#2B0A3D"/>
<path fill-rule="evenodd" clip-rule="evenodd" d="M101.153 221.971H111.228V211.896H101.153V221.971Z" fill="#15636B"/>
<path fill-rule="evenodd" clip-rule="evenodd" d="M101.153 211.896H111.228V201.821H101.153V211.896Z" fill="#15636B"/>
<path fill-rule="evenodd" clip-rule="evenodd" d="M101.153 201.821H111.228V191.746H101.153V201.821Z" fill="#15636B"/>
<path fill-rule="evenodd" clip-rule="evenodd" d="M101.153 191.745H111.228V181.671H101.153V191.745Z" fill="#15636B"/>
<path fill-rule="evenodd" clip-rule="evenodd" d="M101.153 181.671H111.228V171.596H101.153V181.671Z" fill="#15636B"/>
<path fill-rule="evenodd" clip-rule="evenodd" d="M101.153 171.596H111.228V161.521H101.153V171.596Z" fill="#15636B"/>
<path fill-rule="evenodd" clip-rule="evenodd" d="M101.153 161.521H111.228V151.446H101.153V161.521Z" fill="#FF7E83"/>
<path fill-rule="evenodd" clip-rule="evenodd" d="M101.153 151.446H111.228V141.371H101.153V151.446Z" fill="#FF7E83"/>
<path fill-rule="evenodd" clip-rule="evenodd" d="M101.153 141.37H111.228V131.296H101.153V141.37Z" fill="#2B0A3D"/>
<path fill-rule="evenodd" clip-rule="evenodd" d="M101.153 131.296H111.228V121.221H101.153V131.296Z" fill="#2B0A3D"/>
<path fill-rule="evenodd" clip-rule="evenodd" d="M101.153 121.221H111.228V111.146H101.153V121.221Z" fill="#2B0A3D"/>
<path fill-rule="evenodd" clip-rule="evenodd" d="M101.153 111.146H111.228V101.071H101.153V111.146Z" fill="#FF7E83"/>
<path fill-rule="evenodd" clip-rule="evenodd" d="M101.153 101.071H111.228V90.9961H101.153V101.071Z" fill="#FF7E83"/>
<path fill-rule="evenodd" clip-rule="evenodd" d="M101.153 90.9959H111.228V80.9209H101.153V90.9959Z" fill="#FF7E83"/>
<path fill-rule="evenodd" clip-rule="evenodd" d="M101.153 80.9209H111.228V70.8459H101.153V80.9209Z" fill="#FF7E83"/>
<path fill-rule="evenodd" clip-rule="evenodd" d="M101.153 70.846H111.228V60.771H101.153V70.846Z" fill="#00C37B"/>
<path fill-rule="evenodd" clip-rule="evenodd" d="M101.153 60.771H111.228V50.696H101.153V60.771Z" fill="#860864"/>
<path fill-rule="evenodd" clip-rule="evenodd" d="M101.153 50.6961H111.228V40.6211H101.153V50.6961Z" fill="#860864"/>
<path fill-rule="evenodd" clip-rule="evenodd" d="M101.153 40.6209H111.228V30.5459H101.153V40.6209Z" fill="#00C37B"/>
<path fill-rule="evenodd" clip-rule="evenodd" d="M101.153 30.5459H111.228V20.4709H101.153V30.5459Z" fill="#95E616"/>
<path fill-rule="evenodd" clip-rule="evenodd" d="M101.153 20.471H111.228V10.396H101.153V20.471Z" fill="#C8FF16"/>
<path fill-rule="evenodd" clip-rule="evenodd" d="M111.228 262.271H121.303V252.196H111.228V262.271Z" fill="#15636B"/>
<path fill-rule="evenodd" clip-rule="evenodd" d="M111.228 252.196H121.303V242.121H111.228V252.196Z" fill="#15636B"/>
<path fill-rule="evenodd" clip-rule="evenodd" d="M111.228 242.12H121.303V232.046H111.228V242.12Z" fill="#15636B"/>
<path fill-rule="evenodd" clip-rule="evenodd" d="M111.228 232.046H121.303V221.971H111.228V232.046Z" fill="#2B0A3D"/>
<path fill-rule="evenodd" clip-rule="evenodd" d="M111.228 221.971H121.303V211.896H111.228V221.971Z" fill="#15636B"/>
<path fill-rule="evenodd" clip-rule="evenodd" d="M111.228 211.896H121.303V201.821H111.228V211.896Z" fill="#15636B"/>
<path fill-rule="evenodd" clip-rule="evenodd" d="M111.228 201.821H121.303V191.746H111.228V201.821Z" fill="#15636B"/>
<path fill-rule="evenodd" clip-rule="evenodd" d="M111.228 191.745H121.303V181.671H111.228V191.745Z" fill="#15636B"/>
<path fill-rule="evenodd" clip-rule="evenodd" d="M111.228 181.671H121.303V171.596H111.228V181.671Z" fill="#15636B"/>
<path fill-rule="evenodd" clip-rule="evenodd" d="M111.228 171.596H121.303V161.521H111.228V171.596Z" fill="#15636B"/>
<path fill-rule="evenodd" clip-rule="evenodd" d="M111.228 151.446H121.303V141.371H111.228V151.446Z" fill="#FF7E83"/>
<path fill-rule="evenodd" clip-rule="evenodd" d="M111.228 141.37H121.303V131.296H111.228V141.37Z" fill="#FF7E83"/>
<path fill-rule="evenodd" clip-rule="evenodd" d="M111.228 131.296H121.303V121.221H111.228V131.296Z" fill="#2B0A3D"/>
<path fill-rule="evenodd" clip-rule="evenodd" d="M111.228 121.221H121.303V111.146H111.228V121.221Z" fill="#2B0A3D"/>
<path fill-rule="evenodd" clip-rule="evenodd" d="M111.228 111.146H121.303V101.071H111.228V111.146Z" fill="#FF7E83"/>
<path fill-rule="evenodd" clip-rule="evenodd" d="M111.228 101.071H121.303V90.9961H111.228V101.071Z" fill="#2B0A3D"/>
<path fill-rule="evenodd" clip-rule="evenodd" d="M111.228 90.9959H121.303V80.9209H111.228V90.9959Z" fill="white"/>
<path fill-rule="evenodd" clip-rule="evenodd" d="M111.228 80.9209H121.303V70.8459H111.228V80.9209Z" fill="#FF7E83"/>
<path fill-rule="evenodd" clip-rule="evenodd" d="M111.228 70.846H121.303V60.771H111.228V70.846Z" fill="#00C37B"/>
<path fill-rule="evenodd" clip-rule="evenodd" d="M111.228 60.771H121.303V50.696H111.228V60.771Z" fill="#860864"/>
<path fill-rule="evenodd" clip-rule="evenodd" d="M111.228 50.6961H121.303V40.6211H111.228V50.6961Z" fill="#860864"/>
<path fill-rule="evenodd" clip-rule="evenodd" d="M111.228 40.6209H121.303V30.5459H111.228V40.6209Z" fill="#00C37B"/>
<path fill-rule="evenodd" clip-rule="evenodd" d="M111.228 30.5459H121.303V20.4709H111.228V30.5459Z" fill="#95E616"/>
<path fill-rule="evenodd" clip-rule="evenodd" d="M111.228 20.471H121.303V10.396H111.228V20.471Z" fill="#C8FF16"/>
<path fill-rule="evenodd" clip-rule="evenodd" d="M111.228 10.396H121.303V0.321045H111.228V10.396Z" fill="#C8FF16"/>
<path fill-rule="evenodd" clip-rule="evenodd" d="M121.303 292.495H131.378V282.421H121.303V292.495Z" fill="#2B0A3D"/>
<path fill-rule="evenodd" clip-rule="evenodd" d="M121.303 282.421H131.378V272.346H121.303V282.421Z" fill="#15636B"/>
<path fill-rule="evenodd" clip-rule="evenodd" d="M121.303 272.346H131.378V262.271H121.303V272.346Z" fill="#15636B"/>
<path fill-rule="evenodd" clip-rule="evenodd" d="M121.303 262.271H131.378V252.196H121.303V262.271Z" fill="#15636B"/>
<path fill-rule="evenodd" clip-rule="evenodd" d="M121.303 252.196H131.378V242.121H121.303V252.196Z" fill="#15636B"/>
<path fill-rule="evenodd" clip-rule="evenodd" d="M121.303 242.12H131.378V232.046H121.303V242.12Z" fill="#0F999C"/>
<path fill-rule="evenodd" clip-rule="evenodd" d="M121.303 232.046H131.378V221.971H121.303V232.046Z" fill="#15636B"/>
<path fill-rule="evenodd" clip-rule="evenodd" d="M121.303 221.971H131.378V211.896H121.303V221.971Z" fill="#CB2980"/>
<path fill-rule="evenodd" clip-rule="evenodd" d="M121.303 211.896H131.378V201.821H121.303V211.896Z" fill="#CB2980"/>
<path fill-rule="evenodd" clip-rule="evenodd" d="M121.303 201.821H131.378V191.746H121.303V201.821Z" fill="#15636B"/>
<path fill-rule="evenodd" clip-rule="evenodd" d="M121.303 191.745H131.378V181.671H121.303V191.745Z" fill="#15636B"/>
<path fill-rule="evenodd" clip-rule="evenodd" d="M121.303 181.671H131.378V171.596H121.303V181.671Z" fill="#15636B"/>
<path fill-rule="evenodd" clip-rule="evenodd" d="M121.303 171.596H131.378V161.521H121.303V171.596Z" fill="#0F999C"/>
<path fill-rule="evenodd" clip-rule="evenodd" d="M121.303 151.446H131.378V141.371H121.303V151.446Z" fill="#FF7E83"/>
<path fill-rule="evenodd" clip-rule="evenodd" d="M121.303 141.37H131.378V131.296H121.303V141.37Z" fill="#FF7E83"/>
<path fill-rule="evenodd" clip-rule="evenodd" d="M121.303 131.296H131.378V121.221H121.303V131.296Z" fill="#FF7E83"/>
<path fill-rule="evenodd" clip-rule="evenodd" d="M121.303 121.221H131.378V111.146H121.303V121.221Z" fill="#FF7E83"/>
<path fill-rule="evenodd" clip-rule="evenodd" d="M121.303 111.146H131.378V101.071H121.303V111.146Z" fill="#FF7E83"/>
<path fill-rule="evenodd" clip-rule="evenodd" d="M121.303 101.071H131.378V90.9961H121.303V101.071Z" fill="#2B0A3D"/>
<path fill-rule="evenodd" clip-rule="evenodd" d="M121.303 90.9959H131.378V80.9209H121.303V90.9959Z" fill="#2B0A3D"/>
<path fill-rule="evenodd" clip-rule="evenodd" d="M121.303 80.9209H131.378V70.8459H121.303V80.9209Z" fill="#FF7E83"/>
<path fill-rule="evenodd" clip-rule="evenodd" d="M121.303 70.846H131.378V60.771H121.303V70.846Z" fill="#00C37B"/>
<path fill-rule="evenodd" clip-rule="evenodd" d="M121.303 60.771H131.378V50.696H121.303V60.771Z" fill="#860864"/>
<path fill-rule="evenodd" clip-rule="evenodd" d="M121.303 50.6961H131.378V40.6211H121.303V50.6961Z" fill="#860864"/>
<path fill-rule="evenodd" clip-rule="evenodd" d="M121.303 40.6209H131.378V30.5459H121.303V40.6209Z" fill="#00C37B"/>
<path fill-rule="evenodd" clip-rule="evenodd" d="M121.303 30.5459H131.378V20.4709H121.303V30.5459Z" fill="#95E616"/>
<path fill-rule="evenodd" clip-rule="evenodd" d="M121.303 20.471H131.378V10.396H121.303V20.471Z" fill="#95E616"/>
<path fill-rule="evenodd" clip-rule="evenodd" d="M131.378 292.495H141.453V282.421H131.378V292.495Z" fill="#2B0A3D"/>
<path fill-rule="evenodd" clip-rule="evenodd" d="M131.378 282.421H141.453V272.346H131.378V282.421Z" fill="#15636B"/>
<path fill-rule="evenodd" clip-rule="evenodd" d="M131.378 272.346H141.453V262.271H131.378V272.346Z" fill="#15636B"/>
<path fill-rule="evenodd" clip-rule="evenodd" d="M131.378 262.271H141.453V252.196H131.378V262.271Z" fill="#15636B"/>
<path fill-rule="evenodd" clip-rule="evenodd" d="M131.378 252.196H141.453V242.121H131.378V252.196Z" fill="#0F999C"/>
<path fill-rule="evenodd" clip-rule="evenodd" d="M131.378 232.046H141.453V221.971H131.378V232.046Z" fill="#CB2980"/>
<path fill-rule="evenodd" clip-rule="evenodd" d="M131.378 221.971H141.453V211.896H131.378V221.971Z" fill="#CB2980"/>
<path fill-rule="evenodd" clip-rule="evenodd" d="M131.378 211.896H141.453V201.821H131.378V211.896Z" fill="#FF7E83"/>
<path fill-rule="evenodd" clip-rule="evenodd" d="M131.378 201.821H141.453V191.746H131.378V201.821Z" fill="#CB2980"/>
<path fill-rule="evenodd" clip-rule="evenodd" d="M131.378 191.745H141.453V181.671H131.378V191.745Z" fill="#15636B"/>
<path fill-rule="evenodd" clip-rule="evenodd" d="M131.378 181.671H141.453V171.596H131.378V181.671Z" fill="#0F999C"/>
<path fill-rule="evenodd" clip-rule="evenodd" d="M131.378 141.37H141.453V131.296H131.378V141.37Z" fill="#FF7E83"/>
<path fill-rule="evenodd" clip-rule="evenodd" d="M131.378 131.296H141.453V121.221H131.378V131.296Z" fill="#FF7E83"/>
<path fill-rule="evenodd" clip-rule="evenodd" d="M131.378 121.221H141.453V111.146H131.378V121.221Z" fill="#FF7E83"/>
<path fill-rule="evenodd" clip-rule="evenodd" d="M131.378 111.146H141.453V101.071H131.378V111.146Z" fill="#FF7E83"/>
<path fill-rule="evenodd" clip-rule="evenodd" d="M131.378 101.071H141.453V90.9961H131.378V101.071Z" fill="#FF7E83"/>
<path fill-rule="evenodd" clip-rule="evenodd" d="M131.378 90.9959H141.453V80.9209H131.378V90.9959Z" fill="#FF7E83"/>
<path fill-rule="evenodd" clip-rule="evenodd" d="M131.378 80.9209H141.453V70.8459H131.378V80.9209Z" fill="#FF7E83"/>
<path fill-rule="evenodd" clip-rule="evenodd" d="M131.378 70.846H141.453V60.771H131.378V70.846Z" fill="#00C37B"/>
<path fill-rule="evenodd" clip-rule="evenodd" d="M131.378 60.771H141.453V50.696H131.378V60.771Z" fill="#860864"/>
<path fill-rule="evenodd" clip-rule="evenodd" d="M131.378 50.6961H141.453V40.6211H131.378V50.6961Z" fill="#860864"/>
<path fill-rule="evenodd" clip-rule="evenodd" d="M131.378 40.6209H141.453V30.5459H131.378V40.6209Z" fill="#00C37B"/>
<path fill-rule="evenodd" clip-rule="evenodd" d="M131.378 30.5459H141.453V20.4709H131.378V30.5459Z" fill="#95E616"/>
<path fill-rule="evenodd" clip-rule="evenodd" d="M131.378 20.471H141.453V10.396H131.378V20.471Z" fill="#95E616"/>
<path fill-rule="evenodd" clip-rule="evenodd" d="M131.378 10.396H141.453V0.321045H131.378V10.396Z" fill="#C8FF16"/>
<path fill-rule="evenodd" clip-rule="evenodd" d="M141.453 292.495H151.528V282.421H141.453V292.495Z" fill="#2B0A3D"/>
<path fill-rule="evenodd" clip-rule="evenodd" d="M141.453 282.421H151.528V272.346H141.453V282.421Z" fill="#15636B"/>
<path fill-rule="evenodd" clip-rule="evenodd" d="M141.453 272.346H151.528V262.271H141.453V272.346Z" fill="#0F999C"/>
<path fill-rule="evenodd" clip-rule="evenodd" d="M141.453 262.271H151.528V252.196H141.453V262.271Z" fill="#0F999C"/>
<path fill-rule="evenodd" clip-rule="evenodd" d="M141.453 232.046H151.528V221.971H141.453V232.046Z" fill="#CB2980"/>
<path fill-rule="evenodd" clip-rule="evenodd" d="M141.453 221.971H151.528V211.896H141.453V221.971Z" fill="#CB2980"/>
<path fill-rule="evenodd" clip-rule="evenodd" d="M141.453 60.771H151.528V50.696H141.453V60.771Z" fill="#860864"/>
<path fill-rule="evenodd" clip-rule="evenodd" d="M141.453 50.6961H151.528V40.6211H141.453V50.6961Z" fill="#00C37B"/>
<path fill-rule="evenodd" clip-rule="evenodd" d="M141.453 40.6209H151.528V30.5459H141.453V40.6209Z" fill="#00C37B"/>
<path fill-rule="evenodd" clip-rule="evenodd" d="M141.453 30.5459H151.528V20.4709H141.453V30.5459Z" fill="#95E616"/>
<path fill-rule="evenodd" clip-rule="evenodd" d="M141.453 20.471H151.528V10.396H141.453V20.471Z" fill="#95E616"/>
<path fill-rule="evenodd" clip-rule="evenodd" d="M141.453 10.396H151.528V0.321045H141.453V10.396Z" fill="#C8FF16"/>
<path fill-rule="evenodd" clip-rule="evenodd" d="M151.528 292.495H161.603V282.421H151.528V292.495Z" fill="#2B0A3D"/>
<path fill-rule="evenodd" clip-rule="evenodd" d="M151.528 282.421H161.603V272.346H151.528V282.421Z" fill="#860864"/>
<path fill-rule="evenodd" clip-rule="evenodd" d="M151.528 272.346H161.603V262.271H151.528V272.346Z" fill="#0F999C"/>
<path fill-rule="evenodd" clip-rule="evenodd" d="M151.528 232.046H161.603V221.971H151.528V232.046Z" fill="#CB2980"/>
<path fill-rule="evenodd" clip-rule="evenodd" d="M151.528 221.971H161.603V211.896H151.528V221.971Z" fill="#FF7E83"/>
<path fill-rule="evenodd" clip-rule="evenodd" d="M151.528 211.896H161.603V201.821H151.528V211.896Z" fill="#FF7E83"/>
<path fill-rule="evenodd" clip-rule="evenodd" d="M151.528 201.821H161.603V191.746H151.528V201.821Z" fill="#767676"/>
<path fill-rule="evenodd" clip-rule="evenodd" d="M151.528 191.745H161.603V181.671H151.528V191.745Z" fill="#B2B2B2"/>
<path fill-rule="evenodd" clip-rule="evenodd" d="M151.528 30.5459H161.603V20.4709H151.528V30.5459Z" fill="#00C37B"/>
<path fill-rule="evenodd" clip-rule="evenodd" d="M151.528 20.471H161.603V10.396H151.528V20.471Z" fill="#95E616"/>
<path fill-rule="evenodd" clip-rule="evenodd" d="M151.528 10.396H161.603V0.321045H151.528V10.396Z" fill="#C8FF16"/>
<path fill-rule="evenodd" clip-rule="evenodd" d="M161.603 292.495H171.678V282.421H161.603V292.495Z" fill="#2B0A3D"/>
<path fill-rule="evenodd" clip-rule="evenodd" d="M161.603 282.421H171.678V272.346H161.603V282.421Z" fill="#860864"/>
<path fill-rule="evenodd" clip-rule="evenodd" d="M161.603 232.046H171.678V221.971H161.603V232.046Z" fill="#CB2980"/>
<path fill-rule="evenodd" clip-rule="evenodd" d="M161.603 221.971H171.678V211.896H161.603V221.971Z" fill="#CB2980"/>
<path fill-rule="evenodd" clip-rule="evenodd" d="M161.603 211.896H171.678V201.821H161.603V211.896Z" fill="#FF7E83"/>
<path fill-rule="evenodd" clip-rule="evenodd" d="M161.603 201.821H171.678V191.746H161.603V201.821Z" fill="#767676"/>
<path fill-rule="evenodd" clip-rule="evenodd" d="M161.603 191.745H171.678V181.671H161.603V191.745Z" fill="#B2B2B2"/>
<path fill-rule="evenodd" clip-rule="evenodd" d="M161.603 20.471H171.678V10.396H161.603V20.471Z" fill="#95E616"/>
<path fill-rule="evenodd" clip-rule="evenodd" d="M161.603 10.396H171.678V0.321045H161.603V10.396Z" fill="#C8FF16"/>
<path fill-rule="evenodd" clip-rule="evenodd" d="M171.678 292.495H181.753V282.421H171.678V292.495Z" fill="#860864"/>
<path fill-rule="evenodd" clip-rule="evenodd" d="M171.678 232.046H181.753V221.971H171.678V232.046Z" fill="#FF7E83"/>
<path fill-rule="evenodd" clip-rule="evenodd" d="M171.678 221.971H181.753V211.896H171.678V221.971Z" fill="#FF7E83"/>
<path fill-rule="evenodd" clip-rule="evenodd" d="M171.678 211.896H181.753V201.821H171.678V211.896Z" fill="#FF7E83"/>
<path fill-rule="evenodd" clip-rule="evenodd" d="M171.678 201.821H181.753V191.746H171.678V201.821Z" fill="#767676"/>
<path fill-rule="evenodd" clip-rule="evenodd" d="M171.678 191.745H181.753V181.671H171.678V191.745Z" fill="#B2B2B2"/>
<path fill-rule="evenodd" clip-rule="evenodd" d="M171.678 181.671H181.753V171.596H171.678V181.671Z" fill="#B2B2B2"/>
<path fill-rule="evenodd" clip-rule="evenodd" d="M171.678 171.596H181.753V161.521H171.678V171.596Z" fill="#B2B2B2"/>
<path fill-rule="evenodd" clip-rule="evenodd" d="M171.678 161.521H181.753V151.446H171.678V161.521Z" fill="#B2B2B2"/>
<path fill-rule="evenodd" clip-rule="evenodd" d="M171.678 90.9959H181.753V80.9209H171.678V90.9959Z" fill="#B2B2B2"/>
<path fill-rule="evenodd" clip-rule="evenodd" d="M171.678 80.9209H181.753V70.8459H171.678V80.9209Z" fill="#B2B2B2"/>
<path fill-rule="evenodd" clip-rule="evenodd" d="M171.678 70.846H181.753V60.771H171.678V70.846Z" fill="#CFCFCF"/>
<path fill-rule="evenodd" clip-rule="evenodd" d="M181.753 201.821H191.828V191.746H181.753V201.821Z" fill="#767676"/>
<path fill-rule="evenodd" clip-rule="evenodd" d="M181.753 191.745H191.828V181.671H181.753V191.745Z" fill="#B2B2B2"/>
<path fill-rule="evenodd" clip-rule="evenodd" d="M181.753 181.671H191.828V171.596H181.753V181.671Z" fill="#CFCFCF"/>
<path fill-rule="evenodd" clip-rule="evenodd" d="M181.753 171.596H191.828V161.521H181.753V171.596Z" fill="#CFCFCF"/>
<path fill-rule="evenodd" clip-rule="evenodd" d="M181.753 161.521H191.828V151.446H181.753V161.521Z" fill="#CFCFCF"/>
<path fill-rule="evenodd" clip-rule="evenodd" d="M181.753 151.446H191.828V141.371H181.753V151.446Z" fill="#B2B2B2"/>
<path fill-rule="evenodd" clip-rule="evenodd" d="M181.753 141.37H191.828V131.296H181.753V141.37Z" fill="#B2B2B2"/>
<path fill-rule="evenodd" clip-rule="evenodd" d="M181.753 131.296H191.828V121.221H181.753V131.296Z" fill="#B2B2B2"/>
<path fill-rule="evenodd" clip-rule="evenodd" d="M181.753 121.221H191.828V111.146H181.753V121.221Z" fill="#B2B2B2"/>
<path fill-rule="evenodd" clip-rule="evenodd" d="M181.753 111.146H191.828V101.071H181.753V111.146Z" fill="#B2B2B2"/>
<path fill-rule="evenodd" clip-rule="evenodd" d="M181.753 101.071H191.828V90.9961H181.753V101.071Z" fill="#B2B2B2"/>
<path fill-rule="evenodd" clip-rule="evenodd" d="M181.753 90.9959H191.828V80.9209H181.753V90.9959Z" fill="#CFCFCF"/>
<path fill-rule="evenodd" clip-rule="evenodd" d="M181.753 80.9209H191.828V70.8459H181.753V80.9209Z" fill="#CFCFCF"/>
<path fill-rule="evenodd" clip-rule="evenodd" d="M191.828 191.745H201.903V181.671H191.828V191.745Z" fill="#B2B2B2"/>
<path fill-rule="evenodd" clip-rule="evenodd" d="M191.828 161.521H201.903V151.446H191.828V161.521Z" fill="#CFCFCF"/>
<path fill-rule="evenodd" clip-rule="evenodd" d="M191.828 151.446H201.903V141.371H191.828V151.446Z" fill="#CFCFCF"/>
<path fill-rule="evenodd" clip-rule="evenodd" d="M191.828 141.37H201.903V131.296H191.828V141.37Z" fill="#CFCFCF"/>
<path fill-rule="evenodd" clip-rule="evenodd" d="M191.828 131.296H201.903V121.221H191.828V131.296Z" fill="#CFCFCF"/>
<path fill-rule="evenodd" clip-rule="evenodd" d="M191.828 121.221H201.903V111.146H191.828V121.221Z" fill="#CFCFCF"/>
<path fill-rule="evenodd" clip-rule="evenodd" d="M191.828 111.146H201.903V101.071H191.828V111.146Z" fill="#CFCFCF"/>
<path fill-rule="evenodd" clip-rule="evenodd" d="M191.828 101.071H201.903V90.9961H191.828V101.071Z" fill="#CFCFCF"/>
<path fill-rule="evenodd" clip-rule="evenodd" d="M323.553 252.146H333.628V242.071H323.553V252.146Z" fill="#860864"/>
<path fill-rule="evenodd" clip-rule="evenodd" d="M424.303 252.146H434.378V242.071H424.303V252.146Z" fill="#860864"/>
<path fill-rule="evenodd" clip-rule="evenodd" d="M373.928 252.146H384.003V242.071H373.928V252.146Z" fill="#CB2980"/>
<path fill-rule="evenodd" clip-rule="evenodd" d="M474.678 252.146H484.753V242.071H474.678V252.146Z" fill="#860864"/>
<path fill-rule="evenodd" clip-rule="evenodd" d="M434.378 201.771H444.453V191.696H434.378V201.771Z" fill="#860864"/>
<path fill-rule="evenodd" clip-rule="evenodd" d="M384.003 201.771H394.078V191.696H384.003V201.771Z" fill="#860864"/>
<path fill-rule="evenodd" clip-rule="evenodd" d="M333.628 262.221H343.703V252.146H333.628V262.221Z" fill="#860864"/>
<path fill-rule="evenodd" clip-rule="evenodd" d="M384.003 262.221H394.078V252.146H384.003V262.221Z" fill="#CB2980"/>
<path fill-rule="evenodd" clip-rule="evenodd" d="M434.378 262.221H444.453V252.146H434.378V262.221Z" fill="#860864"/>
<path fill-rule="evenodd" clip-rule="evenodd" d="M343.703 292.446H353.778V282.371H343.703V292.446Z" fill="#2B0A3D"/>
<path fill-rule="evenodd" clip-rule="evenodd" d="M404.153 201.771H414.228V191.696H404.153V201.771Z" fill="#860864"/>
<path fill-rule="evenodd" clip-rule="evenodd" d="M454.528 201.771H464.603V191.696H454.528V201.771Z" fill="#860864"/>
<path fill-rule="evenodd" clip-rule="evenodd" d="M353.778 201.771H363.853V191.696H353.778V201.771Z" fill="#860864"/>
<path fill-rule="evenodd" clip-rule="evenodd" d="M353.778 262.221H363.853V252.146H353.778V262.221Z" fill="#C8FF16"/>
<path fill-rule="evenodd" clip-rule="evenodd" d="M454.528 262.221H464.603V252.146H454.528V262.221Z" fill="#860864"/>
<path fill-rule="evenodd" clip-rule="evenodd" d="M404.153 262.221H414.228V252.146H404.153V262.221Z" fill="#2B0A3D"/>
<path fill-rule="evenodd" clip-rule="evenodd" d="M343.703 231.995H353.778V221.921H343.703V231.995Z" fill="#860864"/>
<path fill-rule="evenodd" clip-rule="evenodd" d="M444.453 231.995H454.528V221.921H444.453V231.995Z" fill="#860864"/>
<path fill-rule="evenodd" clip-rule="evenodd" d="M394.078 231.995H404.153V221.921H394.078V231.995Z" fill="#860864"/>
<path fill-rule="evenodd" clip-rule="evenodd" d="M474.678 282.37H484.753V272.296H474.678V282.37Z" fill="#2B0A3D"/>
<path fill-rule="evenodd" clip-rule="evenodd" d="M424.303 282.37H434.378V272.296H424.303V282.37Z" fill="#2B0A3D"/>
<path fill-rule="evenodd" clip-rule="evenodd" d="M373.928 282.37H384.003V272.296H373.928V282.37Z" fill="#860864"/>
<path fill-rule="evenodd" clip-rule="evenodd" d="M464.603 272.296H474.678V262.221H464.603V272.296Z" fill="#2B0A3D"/>
<path fill-rule="evenodd" clip-rule="evenodd" d="M363.853 272.296H373.928V262.221H363.853V272.296Z" fill="#C8FF16"/>
<path fill-rule="evenodd" clip-rule="evenodd" d="M414.228 211.846H424.303V201.771H414.228V211.846Z" fill="#15636B"/>
<path fill-rule="evenodd" clip-rule="evenodd" d="M363.853 211.846H373.928V201.771H363.853V211.846Z" fill="#15636B"/>
<path fill-rule="evenodd" clip-rule="evenodd" d="M464.603 211.846H474.678V201.771H464.603V211.846Z" fill="#860864"/>
<path fill-rule="evenodd" clip-rule="evenodd" d="M464.603 242.071H474.678V231.996H464.603V242.071Z" fill="#860864"/>
<path fill-rule="evenodd" clip-rule="evenodd" d="M363.853 242.071H373.928V231.996H363.853V242.071Z" fill="#CB2980"/>
<path fill-rule="evenodd" clip-rule="evenodd" d="M414.228 242.071H424.303V231.996H414.228V242.071Z" fill="#860864"/>
<path fill-rule="evenodd" clip-rule="evenodd" d="M384.003 292.446H394.078V282.371H384.003V292.446Z" fill="#2B0A3D"/>
<path fill-rule="evenodd" clip-rule="evenodd" d="M384.003 231.995H394.078V221.921H384.003V231.995Z" fill="#860864"/>
<path fill-rule="evenodd" clip-rule="evenodd" d="M434.378 231.995H444.453V221.921H434.378V231.995Z" fill="#CB2980"/>
<path fill-rule="evenodd" clip-rule="evenodd" d="M333.628 231.995H343.703V221.921H333.628V231.995Z" fill="#860864"/>
<path fill-rule="evenodd" clip-rule="evenodd" d="M454.528 231.995H464.603V221.921H454.528V231.995Z" fill="#860864"/>
<path fill-rule="evenodd" clip-rule="evenodd" d="M404.153 231.995H414.228V221.921H404.153V231.995Z" fill="#860864"/>
<path fill-rule="evenodd" clip-rule="evenodd" d="M353.778 231.995H363.853V221.921H353.778V231.995Z" fill="#860864"/>
<path fill-rule="evenodd" clip-rule="evenodd" d="M394.078 201.771H404.153V191.696H394.078V201.771Z" fill="#860864"/>
<path fill-rule="evenodd" clip-rule="evenodd" d="M444.453 201.771H454.528V191.696H444.453V201.771Z" fill="#860864"/>
<path fill-rule="evenodd" clip-rule="evenodd" d="M444.453 262.221H454.528V252.146H444.453V262.221Z" fill="#2B0A3D"/>
<path fill-rule="evenodd" clip-rule="evenodd" d="M394.078 262.221H404.153V252.146H394.078V262.221Z" fill="#860864"/>
<path fill-rule="evenodd" clip-rule="evenodd" d="M343.703 262.221H353.778V252.146H343.703V262.221Z" fill="#CB2980"/>
<path fill-rule="evenodd" clip-rule="evenodd" d="M343.703 272.296H353.778V262.221H343.703V272.296Z" fill="#860864"/>
<path fill-rule="evenodd" clip-rule="evenodd" d="M394.078 272.296H404.153V262.221H394.078V272.296Z" fill="#860864"/>
<path fill-rule="evenodd" clip-rule="evenodd" d="M444.453 272.296H454.528V262.221H444.453V272.296Z" fill="#2B0A3D"/>
<path fill-rule="evenodd" clip-rule="evenodd" d="M394.078 242.071H404.153V231.996H394.078V242.071Z" fill="#860864"/>
<path fill-rule="evenodd" clip-rule="evenodd" d="M444.453 242.071H454.528V231.996H444.453V242.071Z" fill="#860864"/>
<path fill-rule="evenodd" clip-rule="evenodd" d="M343.703 242.071H353.778V231.996H343.703V242.071Z" fill="#860864"/>
<path fill-rule="evenodd" clip-rule="evenodd" d="M444.453 211.846H454.528V201.771H444.453V211.846Z" fill="#CB2980"/>
<path fill-rule="evenodd" clip-rule="evenodd" d="M394.078 211.846H404.153V201.771H394.078V211.846Z" fill="#15636B"/>
<path fill-rule="evenodd" clip-rule="evenodd" d="M343.703 211.846H353.778V201.771H343.703V211.846Z" fill="#15636B"/>
<path fill-rule="evenodd" clip-rule="evenodd" d="M384.003 181.62H394.078V171.546H384.003V181.62Z" fill="#15636B"/>
<path fill-rule="evenodd" clip-rule="evenodd" d="M434.378 181.62H444.453V171.546H434.378V181.62Z" fill="#15636B"/>
<path fill-rule="evenodd" clip-rule="evenodd" d="M414.228 201.771H424.303V191.696H414.228V201.771Z" fill="#860864"/>
<path fill-rule="evenodd" clip-rule="evenodd" d="M363.853 201.771H373.928V191.696H363.853V201.771Z" fill="#860864"/>
<path fill-rule="evenodd" clip-rule="evenodd" d="M414.228 262.221H424.303V252.146H414.228V262.221Z" fill="#860864"/>
<path fill-rule="evenodd" clip-rule="evenodd" d="M363.853 262.221H373.928V252.146H363.853V262.221Z" fill="#CB2980"/>
<path fill-rule="evenodd" clip-rule="evenodd" d="M464.603 262.221H474.678V252.146H464.603V262.221Z" fill="#CB2980"/>
<path fill-rule="evenodd" clip-rule="evenodd" d="M444.453 181.62H454.528V171.546H444.453V181.62Z" fill="#15636B"/>
<path fill-rule="evenodd" clip-rule="evenodd" d="M394.078 181.62H404.153V171.546H394.078V181.62Z" fill="#15636B"/>
<path fill-rule="evenodd" clip-rule="evenodd" d="M414.228 231.995H424.303V221.921H414.228V231.995Z" fill="#860864"/>
<path fill-rule="evenodd" clip-rule="evenodd" d="M363.853 231.995H373.928V221.921H363.853V231.995Z" fill="#860864"/>
<path fill-rule="evenodd" clip-rule="evenodd" d="M464.603 231.995H474.678V221.921H464.603V231.995Z" fill="#860864"/>
<path fill-rule="evenodd" clip-rule="evenodd" d="M373.928 191.696H384.003V181.621H373.928V191.696Z" fill="#15636B"/>
<path fill-rule="evenodd" clip-rule="evenodd" d="M424.303 191.696H434.378V181.621H424.303V191.696Z" fill="#15636B"/>
<path fill-rule="evenodd" clip-rule="evenodd" d="M384.003 272.296H394.078V262.221H384.003V272.296Z" fill="#860864"/>
<path fill-rule="evenodd" clip-rule="evenodd" d="M333.628 272.296H343.703V262.221H333.628V272.296Z" fill="#860864"/>
<path fill-rule="evenodd" clip-rule="evenodd" d="M333.628 242.071H343.703V231.996H333.628V242.071Z" fill="#860864"/>
<path fill-rule="evenodd" clip-rule="evenodd" d="M434.378 242.071H444.453V231.996H434.378V242.071Z" fill="#860864"/>
<path fill-rule="evenodd" clip-rule="evenodd" d="M384.003 242.071H394.078V231.996H384.003V242.071Z" fill="#860864"/>
<path fill-rule="evenodd" clip-rule="evenodd" d="M333.628 211.846H343.703V201.771H333.628V211.846Z" fill="#860864"/>
<path fill-rule="evenodd" clip-rule="evenodd" d="M384.003 211.846H394.078V201.771H384.003V211.846Z" fill="#860864"/>
<path fill-rule="evenodd" clip-rule="evenodd" d="M434.378 211.846H444.453V201.771H434.378V211.846Z" fill="#860864"/>
<path fill-rule="evenodd" clip-rule="evenodd" d="M404.153 272.296H414.228V262.221H404.153V272.296Z" fill="#2B0A3D"/>
<path fill-rule="evenodd" clip-rule="evenodd" d="M454.528 272.296H464.603V262.221H454.528V272.296Z" fill="#2B0A3D"/>
<path fill-rule="evenodd" clip-rule="evenodd" d="M353.778 272.296H363.853V262.221H353.778V272.296Z" fill="#CB2980"/>
<path fill-rule="evenodd" clip-rule="evenodd" d="M353.778 211.846H363.853V201.771H353.778V211.846Z" fill="#15636B"/>
<path fill-rule="evenodd" clip-rule="evenodd" d="M454.528 211.846H464.603V201.771H454.528V211.846Z" fill="#860864"/>
<path fill-rule="evenodd" clip-rule="evenodd" d="M404.153 211.846H414.228V201.771H404.153V211.846Z" fill="#15636B"/>
<path fill-rule="evenodd" clip-rule="evenodd" d="M424.303 221.921H434.378V211.846H424.303V221.921Z" fill="#860864"/>
<path fill-rule="evenodd" clip-rule="evenodd" d="M373.928 221.921H384.003V211.846H373.928V221.921Z" fill="#860864"/>
<path fill-rule="evenodd" clip-rule="evenodd" d="M474.678 221.921H484.753V211.846H474.678V221.921Z" fill="#CB2980"/>
<path fill-rule="evenodd" clip-rule="evenodd" d="M353.778 242.071H363.853V231.996H353.778V242.071Z" fill="#C8FF16"/>
<path fill-rule="evenodd" clip-rule="evenodd" d="M404.153 242.071H414.228V231.996H404.153V242.071Z" fill="#CB2980"/>
<path fill-rule="evenodd" clip-rule="evenodd" d="M454.528 242.071H464.603V231.996H454.528V242.071Z" fill="#CB2980"/>
<path fill-rule="evenodd" clip-rule="evenodd" d="M464.603 252.146H474.678V242.071H464.603V252.146Z" fill="#860864"/>
<path fill-rule="evenodd" clip-rule="evenodd" d="M414.228 252.146H424.303V242.071H414.228V252.146Z" fill="#CB2980"/>
<path fill-rule="evenodd" clip-rule="evenodd" d="M363.853 252.146H373.928V242.071H363.853V252.146Z" fill="#CB2980"/>
<path fill-rule="evenodd" clip-rule="evenodd" d="M424.303 181.62H434.378V171.546H424.303V181.62Z" fill="#15636B"/>
<path fill-rule="evenodd" clip-rule="evenodd" d="M373.928 181.62H384.003V171.546H373.928V181.62Z" fill="#15636B"/>
<path fill-rule="evenodd" clip-rule="evenodd" d="M394.078 191.696H404.153V181.621H394.078V191.696Z" fill="#15636B"/>
<path fill-rule="evenodd" clip-rule="evenodd" d="M444.453 191.696H454.528V181.621H444.453V191.696Z" fill="#15636B"/>
<path fill-rule="evenodd" clip-rule="evenodd" d="M363.853 282.37H373.928V272.296H363.853V282.37Z" fill="#860864"/>
<path fill-rule="evenodd" clip-rule="evenodd" d="M464.603 282.37H474.678V272.296H464.603V282.37Z" fill="#2B0A3D"/>
<path fill-rule="evenodd" clip-rule="evenodd" d="M343.703 221.921H353.778V211.846H343.703V221.921Z" fill="#15636B"/>
<path fill-rule="evenodd" clip-rule="evenodd" d="M394.078 221.921H404.153V211.846H394.078V221.921Z" fill="#15636B"/>
<path fill-rule="evenodd" clip-rule="evenodd" d="M444.453 221.921H454.528V211.846H444.453V221.921Z" fill="#860864"/>
<path fill-rule="evenodd" clip-rule="evenodd" d="M434.378 221.921H444.453V211.846H434.378V221.921Z" fill="#860864"/>
<path fill-rule="evenodd" clip-rule="evenodd" d="M384.003 221.921H394.078V211.846H384.003V221.921Z" fill="#860864"/>
<path fill-rule="evenodd" clip-rule="evenodd" d="M333.628 221.921H343.703V211.846H333.628V221.921Z" fill="#860864"/>
<path fill-rule="evenodd" clip-rule="evenodd" d="M424.303 211.846H434.378V201.771H424.303V211.846Z" fill="#CB2980"/>
<path fill-rule="evenodd" clip-rule="evenodd" d="M373.928 211.846H384.003V201.771H373.928V211.846Z" fill="#860864"/>
<path fill-rule="evenodd" clip-rule="evenodd" d="M373.928 242.071H384.003V231.996H373.928V242.071Z" fill="#C8FF16"/>
<path fill-rule="evenodd" clip-rule="evenodd" d="M424.303 242.071H434.378V231.996H424.303V242.071Z" fill="#860864"/>
<path fill-rule="evenodd" clip-rule="evenodd" d="M474.678 242.071H484.753V231.996H474.678V242.071Z" fill="#CB2980"/>
<path fill-rule="evenodd" clip-rule="evenodd" d="M323.553 242.071H333.628V231.996H323.553V242.071Z" fill="#860864"/>
<path fill-rule="evenodd" clip-rule="evenodd" d="M404.153 221.921H414.228V211.846H404.153V221.921Z" fill="#2B0A3D"/>
<path fill-rule="evenodd" clip-rule="evenodd" d="M454.528 221.921H464.603V211.846H454.528V221.921Z" fill="#CB2980"/>
<path fill-rule="evenodd" clip-rule="evenodd" d="M353.778 221.921H363.853V211.846H353.778V221.921Z" fill="#2B0A3D"/>
<path fill-rule="evenodd" clip-rule="evenodd" d="M323.553 272.296H333.628V262.221H323.553V272.296Z" fill="#2B0A3D"/>
<path fill-rule="evenodd" clip-rule="evenodd" d="M424.303 272.296H434.378V262.221H424.303V272.296Z" fill="#2B0A3D"/>
<path fill-rule="evenodd" clip-rule="evenodd" d="M373.928 272.296H384.003V262.221H373.928V272.296Z" fill="#CB2980"/>
<path fill-rule="evenodd" clip-rule="evenodd" d="M434.378 191.696H444.453V181.621H434.378V191.696Z" fill="#2B0A3D"/>
<path fill-rule="evenodd" clip-rule="evenodd" d="M384.003 191.696H394.078V181.621H384.003V191.696Z" fill="#2B0A3D"/>
<path fill-rule="evenodd" clip-rule="evenodd" d="M404.153 191.696H414.228V181.621H404.153V191.696Z" fill="#860864"/>
<path fill-rule="evenodd" clip-rule="evenodd" d="M404.153 282.37H414.228V272.296H404.153V282.37Z" fill="#2B0A3D"/>
<path fill-rule="evenodd" clip-rule="evenodd" d="M353.778 282.37H363.853V272.296H353.778V282.37Z" fill="#860864"/>
<path fill-rule="evenodd" clip-rule="evenodd" d="M384.003 282.37H394.078V272.296H384.003V282.37Z" fill="#2B0A3D"/>
<path fill-rule="evenodd" clip-rule="evenodd" d="M333.628 282.37H343.703V272.296H333.628V282.37Z" fill="#860864"/>
<path fill-rule="evenodd" clip-rule="evenodd" d="M404.153 252.146H414.228V242.071H404.153V252.146Z" fill="#860864"/>
<path fill-rule="evenodd" clip-rule="evenodd" d="M454.528 252.146H464.603V242.071H454.528V252.146Z" fill="#860864"/>
<path fill-rule="evenodd" clip-rule="evenodd" d="M353.778 252.146H363.853V242.071H353.778V252.146Z" fill="#CB2980"/>
<path fill-rule="evenodd" clip-rule="evenodd" d="M434.378 252.146H444.453V242.071H434.378V252.146Z" fill="#CB2980"/>
<path fill-rule="evenodd" clip-rule="evenodd" d="M384.003 252.146H394.078V242.071H384.003V252.146Z" fill="#C8FF16"/>
<path fill-rule="evenodd" clip-rule="evenodd" d="M333.628 252.146H343.703V242.071H333.628V252.146Z" fill="#860864"/>
<path fill-rule="evenodd" clip-rule="evenodd" d="M424.303 262.221H434.378V252.146H424.303V262.221Z" fill="#2B0A3D"/>
<path fill-rule="evenodd" clip-rule="evenodd" d="M373.928 262.221H384.003V252.146H373.928V262.221Z" fill="#C8FF16"/>
<path fill-rule="evenodd" clip-rule="evenodd" d="M323.553 262.221H333.628V252.146H323.553V262.221Z" fill="#860864"/>
<path fill-rule="evenodd" clip-rule="evenodd" d="M424.303 201.771H434.378V191.696H424.303V201.771Z" fill="#860864"/>
<path fill-rule="evenodd" clip-rule="evenodd" d="M373.928 201.771H384.003V191.696H373.928V201.771Z" fill="#860864"/>
<path fill-rule="evenodd" clip-rule="evenodd" d="M343.703 252.146H353.778V242.071H343.703V252.146Z" fill="#C8FF16"/>
<path fill-rule="evenodd" clip-rule="evenodd" d="M394.078 252.146H404.153V242.071H394.078V252.146Z" fill="#860864"/>
<path fill-rule="evenodd" clip-rule="evenodd" d="M444.453 252.146H454.528V242.071H444.453V252.146Z" fill="#2B0A3D"/>
<path fill-rule="evenodd" clip-rule="evenodd" d="M414.228 191.696H424.303V181.621H414.228V191.696Z" fill="#860864"/>
<path fill-rule="evenodd" clip-rule="evenodd" d="M323.553 231.995H333.628V221.921H323.553V231.995Z" fill="#860864"/>
<path fill-rule="evenodd" clip-rule="evenodd" d="M474.678 231.995H484.753V221.921H474.678V231.995Z" fill="#860864"/>
<path fill-rule="evenodd" clip-rule="evenodd" d="M424.303 231.995H434.378V221.921H424.303V231.995Z" fill="#860864"/>
<path fill-rule="evenodd" clip-rule="evenodd" d="M373.928 231.995H384.003V221.921H373.928V231.995Z" fill="#860864"/>
<path fill-rule="evenodd" clip-rule="evenodd" d="M343.703 282.37H353.778V272.296H343.703V282.37Z" fill="#2B0A3D"/>
<path fill-rule="evenodd" clip-rule="evenodd" d="M394.078 282.37H404.153V272.296H394.078V282.37Z" fill="#860864"/>
<path fill-rule="evenodd" clip-rule="evenodd" d="M464.603 221.921H474.678V211.846H464.603V221.921Z" fill="#860864"/>
<path fill-rule="evenodd" clip-rule="evenodd" d="M414.228 221.921H424.303V211.846H414.228V221.921Z" fill="#15636B"/>
<path fill-rule="evenodd" clip-rule="evenodd" d="M363.853 221.921H373.928V211.846H363.853V221.921Z" fill="#15636B"/>
</svg>
